<svg xmlns="http://www.w3.org/2000/svg" viewBox="4722.864 -304.867 562.577 199.912">
  <defs>
    <style>
      .cls-1, .cls-14, .cls-16, .cls-22, .cls-25, .cls-26, .cls-27 {
        fill: #fff;
      }

      .cls-1, .cls-10, .cls-11, .cls-12, .cls-13, .cls-14, .cls-15, .cls-16, .cls-28, .cls-4, .cls-6, .cls-7, .cls-8, .cls-9 {
        stroke: #211915;
      }

      .cls-1, .cls-10, .cls-11, .cls-12, .cls-13, .cls-14, .cls-15, .cls-16, .cls-17, .cls-2, .cls-20, .cls-21, .cls-22, .cls-23, .cls-24, .cls-25, .cls-26, .cls-27, .cls-28, .cls-3, .cls-30, .cls-4, .cls-6, .cls-7, .cls-8, .cls-9 {
        stroke-linejoin: round;
      }

      .cls-1, .cls-10, .cls-11, .cls-12, .cls-13, .cls-14, .cls-15, .cls-16, .cls-2, .cls-20, .cls-21, .cls-22, .cls-23, .cls-24, .cls-25, .cls-26, .cls-27, .cls-28, .cls-29, .cls-3, .cls-30, .cls-4, .cls-5, .cls-6, .cls-7, .cls-8, .cls-9 {
        stroke-miterlimit: 10;
      }

      .cls-1 {
        stroke-width: 0.75px;
      }

      .cls-1, .cls-10, .cls-14, .cls-15, .cls-16, .cls-2, .cls-21, .cls-22, .cls-23, .cls-24, .cls-25, .cls-27, .cls-28, .cls-30, .cls-5, .cls-6, .cls-8, .cls-9 {
        fill-rule: evenodd;
      }

      .cls-11, .cls-17, .cls-2, .cls-20, .cls-21, .cls-23, .cls-28, .cls-29, .cls-3, .cls-30, .cls-4, .cls-5, .cls-6, .cls-7, .cls-8 {
        fill: none;
      }

      .cls-2, .cls-3 {
        stroke: #c2c3c8;
      }

      .cls-11, .cls-14, .cls-2, .cls-20, .cls-21, .cls-27, .cls-28, .cls-3, .cls-4, .cls-8 {
        stroke-linecap: round;
      }

      .cls-10, .cls-11, .cls-12, .cls-13, .cls-14, .cls-15, .cls-16, .cls-2, .cls-3, .cls-6, .cls-7, .cls-8, .cls-9 {
        stroke-width: 0.537px;
      }

      .cls-28, .cls-4 {
        stroke-width: 0.4px;
      }

      .cls-29, .cls-5 {
        stroke: #fff;
      }

      .cls-5 {
        stroke-width: 0.402px;
      }

      .cls-9 {
        fill: #666669;
      }

      .cls-10, .cls-12 {
        fill: #a3a2a7;
      }

      .cls-13, .cls-15 {
        fill: #e2e3e6;
      }

      .cls-17 {
        stroke: #c8d41b;
        stroke-width: 2px;
      }

      .cls-18 {
        fill: #c8d41b;
      }

      .cls-19 {
        fill: #6d740d;
        font-size: 10px;
        font-family: Quicksand-Medium, Quicksand;
        font-weight: 500;
      }

      .cls-20, .cls-21, .cls-22, .cls-23, .cls-24, .cls-25, .cls-26, .cls-27, .cls-30 {
        stroke: #160f0c;
      }

      .cls-20, .cls-21, .cls-25, .cls-26, .cls-27, .cls-30 {
        stroke-width: 0.548px;
      }

      .cls-22, .cls-24 {
        stroke-width: 1.097px;
      }

      .cls-23 {
        stroke-width: 0.428px;
      }

      .cls-24 {
        fill: #efefef;
      }

      .cls-29 {
        stroke-width: 0.411px;
      }
    </style>
  </defs>
  <g id="Group_774" data-name="Group 774" transform="translate(4724.671 -301.417)">
    <g id="Group_736" data-name="Group 736" transform="translate(-1.917 -3.45)">
      <g id="Group_724" data-name="Group 724" transform="translate(28.809 32.623)">
        <path id="Path_755" data-name="Path 755" class="cls-1" d="M94.51,189.719H80.54a6.063,6.063,0,0,1-3.391.861h-8.3c-3.644,0-7.542-.709-8.6-.709-2.835,0-3.189-1.519-3.493-2.328a25.408,25.408,0,0,1-.253-4.859c0-.911.253-1.215.506-1.215.2,0,2.379-.3,2.632-.3.3,0-1.063-.709-1.114-2.126,0-.911.1-9.82.1-10.073.051-1.215,1.063-1.164,1.822-1.367-2.835-14.983-.506-44.391-.354-45.656a1.426,1.426,0,0,1,1.063-1.417c0-17.513,2.986-43.936,3.088-44.442-.3,0-.506-.2-.456-1.063.051-.81.253-2.177.506-3.948C64.8,64.594,67.025,61,73.454,61H255.219c11.034,0,29.307,5.467,34.521,10.731,5.163,5.163,43.581,45.4,43.581,45.4h6.226c1.265,0,1.569.3,1.569.3,1.62.709,19.538,8.858,26.675,13.009,7.086,4.151,9.314,13.717,9.314,14.021,0,.253.4.759-.253.759h-2.177s.1.709.2,1.62a6.379,6.379,0,0,1,3.341,3.442c0,.4-.354.456-.709.456h-1.822s.354,1.417.557,2.733a3.381,3.381,0,0,1,2.835,2.581c0,.4,0,.759-.709.759h-1.62A9.359,9.359,0,0,1,377,159.4a3.151,3.151,0,0,1,2.835,3.391l-2.126-.1s.253,1.215.354,1.67a4.139,4.139,0,0,1,2.328,3.9v7.39c0,1.316-.658,1.974-1.569,1.974.1,2.48-.354,5.416-.759,5.872.557,0,1.164.354.658,1.114a27.759,27.759,0,0,1-2.48,3.594c-1.316,1.519-2.733,1.67-4.707,1.873s-15.641.456-16.6.456a1.33,1.33,0,0,1-1.417-1.316v-8.757a27.08,27.08,0,0,0-54.16,0v11.136a.655.655,0,0,1-.709.709H286.7c-5.77,0-16.855-2.227-20.9-2.227H149.328v-6.428a27.08,27.08,0,0,0-54.16,0v5.163C95.118,189.365,95.168,189.719,94.51,189.719Z" transform="translate(-56.494 -61)"/>
        <g id="Group_696" data-name="Group 696" transform="translate(8.254 3.239)">
          <path id="Path_756" data-name="Path 756" class="cls-2" d="M290.632,77.169C284.912,71.146,271.5,67.4,255,67.4H80.217c-1.822,0-4.2.456-5.517,1.772" transform="translate(-73.738 -67.4)"/>
          <path id="Path_757" data-name="Path 757" class="cls-2" d="M476.22,76.106C473.183,73.575,465.742,67.4,450,67.4" transform="translate(-259.073 -67.4)"/>
          <line id="Line_185" data-name="Line 185" class="cls-3" x1="15.134" transform="translate(175.793 0)"/>
          <path id="Path_758" data-name="Path 758" class="cls-2" d="M253.309,72.5s-145.676.2-149.472.2-3.8,1.923-4,4.353c-.152,2.43-3.138,8.453-3.138,90.706" transform="translate(-84.603 -69.919)"/>
          <line id="Line_186" data-name="Line 186" class="cls-3" x2="150.585" transform="translate(18.121 4.707)"/>
          <path id="Path_759" data-name="Path 759" class="cls-2" d="M91.81,70.5s-8.1.506-9.212.607c-1.063.051-3.189-.152-4,4.91-.81,5.011-4,37.912-4,51.326" transform="translate(-73.689 -68.931)"/>
          <path id="Path_760" data-name="Path 760" class="cls-2" d="M87.5,218.1H252.511a33.34,33.34,0,0,1,9.668,1.417c2.328.607,26.321,9.516,30.32,11.743,3.948,2.177,3.088,4,1.468,9.921" transform="translate(-80.059 -141.82)"/>
          <path id="Path_761" data-name="Path 761" class="cls-2" d="M148.634,224.2c-7.846,1.822-18.526,6.58-23.334,18.475" transform="translate(-98.726 -144.833)"/>
          <path id="Path_762" data-name="Path 762" class="cls-2" d="M224.536,242.675C219.676,230.73,209,225.972,201.1,224.2" transform="translate(-136.158 -144.833)"/>
          <path id="Path_763" data-name="Path 763" class="cls-2" d="M389.918,313.277h-12.3c-1.265,0-9.162-2.177-17.716-2.177H240.8" transform="translate(-155.764 -187.746)"/>
          <path id="Path_764" data-name="Path 764" class="cls-2" d="M556.6,162.7c3.7,4.151,12,13.262,30.218,18.02" transform="translate(-311.715 -114.462)"/>
          <line id="Line_187" data-name="Line 187" class="cls-3" y1="6.327" transform="translate(221.095 119.152)"/>
          <path id="Path_765" data-name="Path 765" class="cls-2" d="M509.6,258.9c0-30.218,22.929-45,40.544-45,9.769,0,21.208,4.556,29.459,13.818" transform="translate(-288.505 -139.746)"/>
          <path id="Path_766" data-name="Path 766" class="cls-2" d="M579.823,241.1c-7.694-7.086-17.463-8.3-22.322-8.3-8.6,0-32.9,3.9-32.9,37.76v4.049" transform="translate(-295.913 -149.08)"/>
          <g id="Group_694" data-name="Group 694" transform="translate(13.211 11.693)">
            <path id="Path_767" data-name="Path 767" class="cls-2" d="M103.2,95.916a5.379,5.379,0,0,1,5.365-5.416" transform="translate(-101.023 -90.5)"/>
            <path id="Path_768" data-name="Path 768" class="cls-2" d="M111.726,90.5h68.181v45.859H109.6" transform="translate(-104.184 -90.5)"/>
            <path id="Path_769" data-name="Path 769" class="cls-2" d="M104.316,175.865A5.412,5.412,0,0,1,98.9,170.5" transform="translate(-98.9 -130.006)"/>
            <line id="Line_188" data-name="Line 188" class="cls-3" y1="35.078" x2="2.177" transform="translate(0 5.416)"/>
            <path id="Path_770" data-name="Path 770" class="cls-2" d="M392.6,90.5a5.379,5.379,0,0,1,5.365,5.416" transform="translate(-243.938 -90.5)"/>
            <line id="Line_189" data-name="Line 189" class="cls-3" y2="35.078" transform="translate(154.027 5.416)"/>
            <path id="Path_771" data-name="Path 771" class="cls-2" d="M397.965,170.5a5.368,5.368,0,0,1-5.365,5.365" transform="translate(-243.938 -130.006)"/>
            <path id="Path_772" data-name="Path 772" class="cls-2" d="M321.439,136.359H248.5V90.5h72.939" transform="translate(-172.777 -90.5)"/>
          </g>
          <g id="Group_695" data-name="Group 695" transform="translate(13.97 12.452)">
            <path id="Path_773" data-name="Path 773" class="cls-2" d="M104.6,96.707A4.688,4.688,0,0,1,109.257,92" transform="translate(-102.474 -92)"/>
            <path id="Path_774" data-name="Path 774" class="cls-2" d="M111.726,92h68.181v44.34H109.6" transform="translate(-104.943 -92)"/>
            <path id="Path_775" data-name="Path 775" class="cls-2" d="M105.057,140.933a4.667,4.667,0,0,1-4.657-4.606l2.126-35.027" transform="translate(-100.4 -96.593)"/>
            <path id="Path_776" data-name="Path 776" class="cls-2" d="M392.6,92a4.634,4.634,0,0,1,4.606,4.657" transform="translate(-244.697 -92)"/>
            <line id="Line_190" data-name="Line 190" class="cls-3" y2="35.078" transform="translate(152.509 4.657)"/>
            <path id="Path_777" data-name="Path 777" class="cls-2" d="M397.206,170.5a4.623,4.623,0,0,1-4.606,4.606" transform="translate(-244.697 -130.766)"/>
            <path id="Path_778" data-name="Path 778" class="cls-2" d="M321.439,136.34H248.5V92h72.939" transform="translate(-173.536 -92)"/>
          </g>
          <path id="Path_779" data-name="Path 779" class="cls-2" d="M79.279,67.4c-1.063,0-3.493,1.063-3.493,4.96,0,.709-.3.81-.81.81H72.8" transform="translate(-72.8 -67.4)"/>
          <path id="Path_780" data-name="Path 780" class="cls-2" d="M427.9,145.1c1.974,9.465,5.619,10.073,8.048,11.237,2.48,1.215,26.017,8.6,33.306,10.731,5.264,1.519,7.238,1.063,8.251.607a3.949,3.949,0,0,0,.152,1.215c.253.911.709,1.873,2.278,1.265" transform="translate(-248.159 -105.771)"/>
          <path id="Path_781" data-name="Path 781" class="cls-2" d="M475.935,148.722a3.979,3.979,0,0,1-.607.2,14.746,14.746,0,0,1-9.111.506c-5.011-1.215-25.612-7.542-30.522-9.314-4.96-1.772-13.363-4.353-14.578-16.754C420,111.417,419.7,103.622,419.7,101.8c.051,2.075,2.227,12.7,4.1,21.917" transform="translate(-244.11 -84.388)"/>
          <path id="Path_782" data-name="Path 782" class="cls-2" d="M609.9,172.8c3.29,1.721,12,5.214,16.046,6.935,4.5,1.873,20.7,7.339,23.182,20.2" transform="translate(-338.036 -119.45)"/>
          <line id="Line_191" data-name="Line 191" class="cls-3" x2="79.772" transform="translate(88.934 121.481)"/>
          <path id="Path_783" data-name="Path 783" class="cls-2" d="M130.412,224.1H88.4" transform="translate(-80.504 -144.783)"/>
          <path id="Path_784" data-name="Path 784" class="cls-2" d="M350.625,238.172s-27.333-10.883-31.281-11.743c-3.9-.81-7.289-2.328-20.449-2.328H200.9" transform="translate(-136.06 -144.783)"/>
          <path id="Path_785" data-name="Path 785" class="cls-2" d="M311.937,216.216s-25.055-15.084-30.573-17.412a58.188,58.188,0,0,0-21.867-4.4H83.3" transform="translate(-77.985 -130.116)"/>
          <line id="Line_192" data-name="Line 192" class="cls-3" x1="11.794" transform="translate(18.121 123.354)"/>
        </g>
        <g id="Group_707" data-name="Group 707" transform="translate(42.37 101.386)">
          <g id="Group_701" data-name="Group 701">
            <circle id="Ellipse_67" data-name="Ellipse 67" class="cls-4" cx="23.334" cy="23.334" r="23.334"/>
            <path id="Path_786" data-name="Path 786" class="cls-5" d="M153.3,291.1A16.7,16.7,0,1,0,170,274.4a16.688,16.688,0,0,0-16.7,16.7" transform="translate(-146.669 -267.769)"/>
            <path id="Path_787" data-name="Path 787" class="cls-6" d="M157.6,293.227A14.578,14.578,0,1,0,172.178,278.7,14.581,14.581,0,0,0,157.6,293.227Z" transform="translate(-148.793 -269.893)"/>
            <circle id="Ellipse_68" data-name="Ellipse 68" class="cls-7" cx="2.784" cy="2.784" r="2.784" transform="translate(20.55 20.55)"/>
            <g id="Group_697" data-name="Group 697" transform="translate(9.668 9.415)">
              <path id="Path_788" data-name="Path 788" class="cls-8" d="M181.9,281.52a11.1,11.1,0,0,0-3.7.607,16.258,16.258,0,0,1-.81-1.518,13.43,13.43,0,0,1,4.556-.709,15.051,15.051,0,0,1,4.556.709c-.2.4-.506.861-.81,1.518a11.7,11.7,0,0,0-3.8-.607" transform="translate(-168.238 -279.9)"/>
              <path id="Path_789" data-name="Path 789" class="cls-8" d="M205.079,290.953a13.717,13.717,0,0,0-2.379-2.936,8.1,8.1,0,0,0,.86-1.417,12.484,12.484,0,0,1,2.936,3.543,15.641,15.641,0,0,1,1.62,4.353h-1.67a13.167,13.167,0,0,0-1.367-3.543" transform="translate(-180.732 -283.209)"/>
              <path id="Path_790" data-name="Path 790" class="cls-8" d="M205.079,316.143a12.55,12.55,0,0,0,1.367-3.543c.658,0,1.265.051,1.67.051a13.923,13.923,0,0,1-1.62,4.3,13.222,13.222,0,0,1-2.936,3.543c-.2-.354-.506-.81-.86-1.417a13.436,13.436,0,0,0,2.379-2.936" transform="translate(-180.732 -296.048)"/>
              <path id="Path_791" data-name="Path 791" class="cls-8" d="M181.806,331.107a12.554,12.554,0,0,0,3.7-.607,16.7,16.7,0,0,1,.81,1.468,13.658,13.658,0,0,1-4.556.759,14.815,14.815,0,0,1-4.556-.759c.2-.354.506-.86.81-1.468a13.834,13.834,0,0,0,3.8.607" transform="translate(-168.14 -304.888)"/>
              <path id="Path_792" data-name="Path 792" class="cls-8" d="M162.337,316.143a12.341,12.341,0,0,0,2.379,2.936,10.535,10.535,0,0,0-.861,1.417,12.483,12.483,0,0,1-2.936-3.543,13.923,13.923,0,0,1-1.62-4.3c.4,0,.962-.051,1.67-.051a13.845,13.845,0,0,0,1.367,3.543" transform="translate(-159.3 -296.048)"/>
              <path id="Path_793" data-name="Path 793" class="cls-8" d="M162.337,290.953a13.168,13.168,0,0,0-1.367,3.543,15.782,15.782,0,0,1-1.67-.051,13.923,13.923,0,0,1,4.556-7.846c.2.354.506.861.861,1.417a12.115,12.115,0,0,0-2.379,2.936" transform="translate(-159.3 -283.209)"/>
            </g>
            <g id="Group_698" data-name="Group 698" transform="translate(11.288 11.034)">
              <path id="Path_794" data-name="Path 794" class="cls-9" d="M179.962,285.53c-.354-.658-.709-1.265-.962-1.822a11.543,11.543,0,0,1,7.39,0c-.3.557-.658,1.164-.962,1.822a9.428,9.428,0,0,0-5.467,0Z" transform="translate(-170.648 -283.1)"/>
              <path id="Path_795" data-name="Path 795" class="cls-9" d="M200.5,291.172c.4-.607.709-1.164,1.063-1.772a12.343,12.343,0,0,1,2.379,2.936,13.166,13.166,0,0,1,1.367,3.543c-.709.051-1.367.051-2.075.1a12.62,12.62,0,0,0-1.063-2.581A8.036,8.036,0,0,0,200.5,291.172Z" transform="translate(-181.266 -286.211)"/>
              <path id="Path_796" data-name="Path 796" class="cls-9" d="M203.433,312.5c.709,0,1.367.051,2.075.051a12.157,12.157,0,0,1-3.746,6.479c-.354-.557-.709-1.164-1.063-1.772a10.191,10.191,0,0,0,1.721-2.177A16.066,16.066,0,0,0,203.433,312.5Z" transform="translate(-181.364 -297.619)"/>
              <path id="Path_797" data-name="Path 797" class="cls-9" d="M185.528,327a15.815,15.815,0,0,1,.962,1.822,11.543,11.543,0,0,1-7.39,0c.3-.607.658-1.215.962-1.822a9.644,9.644,0,0,0,2.733.4A10.212,10.212,0,0,0,185.528,327Z" transform="translate(-170.698 -304.779)"/>
              <path id="Path_798" data-name="Path 798" class="cls-9" d="M167.409,317.258c-.4.607-.759,1.215-1.063,1.772a11.222,11.222,0,0,1-2.379-2.936,14.286,14.286,0,0,1-1.367-3.543c.658,0,1.367-.051,2.075-.051a11.163,11.163,0,0,0,1.063,2.531A8.035,8.035,0,0,0,167.409,317.258Z" transform="translate(-162.549 -297.619)"/>
              <path id="Path_799" data-name="Path 799" class="cls-9" d="M164.575,295.98c-.709-.051-1.417-.051-2.075-.1a14.594,14.594,0,0,1,1.367-3.543,12.341,12.341,0,0,1,2.379-2.936c.3.607.709,1.164,1.063,1.772a8.821,8.821,0,0,0-1.721,2.177A16.608,16.608,0,0,0,164.575,295.98Z" transform="translate(-162.5 -286.211)"/>
            </g>
            <g id="Group_699" data-name="Group 699" transform="translate(13.363 13.009)">
              <path id="Path_800" data-name="Path 800" class="cls-6" d="M184.141,291h-1.114c-.2,0-.354-.1-.506-.354-.051-.152-.86-1.67-1.721-3.239a9.644,9.644,0,0,1,2.733-.4,9.922,9.922,0,0,1,2.733.4c-.861,1.569-1.67,3.088-1.772,3.239A.32.32,0,0,1,184.141,291Z" transform="translate(-173.612 -287)"/>
              <path id="Path_801" data-name="Path 801" class="cls-6" d="M197.027,297.507a2.918,2.918,0,0,0-.253-.456s-.2-.354-.3-.506a.708.708,0,0,1,.1-.607c.051-.1.962-1.569,1.923-3.138a10.191,10.191,0,0,1,1.721,2.177,10.3,10.3,0,0,1,1.063,2.581c-1.873.051-3.594.1-3.7.1A.441.441,0,0,1,197.027,297.507Z" transform="translate(-181.336 -289.864)"/>
              <path id="Path_802" data-name="Path 802" class="cls-6" d="M196.57,313.351l.3-.456a4.513,4.513,0,0,0,.253-.506.525.525,0,0,1,.557-.2c.152,0,1.873.051,3.7.1a11.162,11.162,0,0,1-1.063,2.531A9.076,9.076,0,0,1,198.6,317c-.911-1.569-1.873-3.037-1.923-3.138A.483.483,0,0,1,196.57,313.351Z" transform="translate(-181.385 -299.432)"/>
              <path id="Path_803" data-name="Path 803" class="cls-6" d="M183.226,319.8h1.114c.2,0,.354.1.456.4.1.1.861,1.62,1.772,3.24a9.923,9.923,0,0,1-2.733.4,9.645,9.645,0,0,1-2.733-.4c.81-1.62,1.67-3.138,1.721-3.24C182.872,319.9,183.023,319.8,183.226,319.8Z" transform="translate(-173.761 -303.198)"/>
              <path id="Path_804" data-name="Path 804" class="cls-6" d="M170.852,312.528a4.516,4.516,0,0,0,.253.506l.3.456a.708.708,0,0,1-.1.607c-.051.1-.962,1.569-1.923,3.138a8.823,8.823,0,0,1-1.721-2.177,9.269,9.269,0,0,1-1.063-2.531c1.873-.051,3.594-.1,3.7-.1C170.6,312.275,170.751,312.376,170.852,312.528Z" transform="translate(-166.6 -299.519)"/>
              <path id="Path_805" data-name="Path 805" class="cls-6" d="M171.409,296.644c-.1.152-.3.506-.3.506a2.917,2.917,0,0,0-.253.456.653.653,0,0,1-.557.253c-.152,0-1.873-.051-3.7-.1a12.621,12.621,0,0,1,1.063-2.581A7.979,7.979,0,0,1,169.384,293c.911,1.569,1.873,3.037,1.923,3.138A.5.5,0,0,1,171.409,296.644Z" transform="translate(-166.6 -289.963)"/>
            </g>
            <path id="Path_806" data-name="Path 806" class="cls-8" d="M169.9,307.462a1.647,1.647,0,0,1,1.67-1.67,15.167,15.167,0,0,1,1.923-.152c.4,0,.709-.051.709-.709s-.354-.709-.709-.709a15.161,15.161,0,0,1-1.923-.152,1.647,1.647,0,0,1-1.67-1.67" transform="translate(-154.867 -281.596)"/>
            <path id="Path_807" data-name="Path 807" class="cls-8" d="M173.8,293.23a1.673,1.673,0,0,1,2.278.658c.81,1.215.86,1.265,1.063,1.62.2.3.4.607.962.253s.456-.658.253-.962a11.385,11.385,0,0,1-.81-1.721,1.612,1.612,0,0,1,.607-2.278" transform="translate(-156.793 -275.868)"/>
            <path id="Path_808" data-name="Path 808" class="cls-8" d="M189.878,290.7a1.68,1.68,0,0,1,.658,2.278c-.658,1.316-.658,1.367-.81,1.721-.2.354-.354.658.253.962s.759.051.962-.253a13.254,13.254,0,0,1,1.063-1.62,1.779,1.779,0,0,1,2.278-.658" transform="translate(-164.569 -275.819)"/>
            <path id="Path_809" data-name="Path 809" class="cls-8" d="M198.6,302.5a1.647,1.647,0,0,1-1.67,1.67,15.162,15.162,0,0,1-1.923.152c-.4,0-.709.051-.709.709,0,.709.354.709.709.709a15.782,15.782,0,0,1,1.923.152,1.647,1.647,0,0,1,1.67,1.67" transform="translate(-166.916 -281.646)"/>
            <path id="Path_810" data-name="Path 810" class="cls-8" d="M194.281,316.6a1.623,1.623,0,0,1-2.278-.658,11.011,11.011,0,0,1-1.063-1.569c-.2-.354-.4-.607-.962-.3-.607.354-.456.658-.253.962.2.354.2.4.81,1.721a1.68,1.68,0,0,1-.658,2.328" transform="translate(-164.569 -287.291)"/>
            <path id="Path_811" data-name="Path 811" class="cls-8" d="M178.153,319.179a1.741,1.741,0,0,1-.607-2.328c.607-1.316.658-1.367.81-1.721.2-.354.354-.658-.253-.962s-.759-.051-.962.3-.253.4-1.063,1.569a1.729,1.729,0,0,1-2.278.658" transform="translate(-156.793 -287.341)"/>
            <g id="Group_700" data-name="Group 700" transform="translate(17.868 17.785)">
              <path id="Path_812" data-name="Path 812" class="cls-8" d="M177.626,298.8a5.643,5.643,0,0,0-2.126,3.594" transform="translate(-175.5 -297.604)"/>
              <path id="Path_813" data-name="Path 813" class="cls-8" d="M186.4,296.874a5.272,5.272,0,0,0-4.2,0" transform="translate(-178.809 -296.437)"/>
              <path id="Path_814" data-name="Path 814" class="cls-8" d="M195.126,302.394A5.249,5.249,0,0,0,193,298.8" transform="translate(-184.142 -297.604)"/>
              <path id="Path_815" data-name="Path 815" class="cls-8" d="M193,312.494a5.52,5.52,0,0,0,2.126-3.594" transform="translate(-184.142 -302.592)"/>
              <path id="Path_816" data-name="Path 816" class="cls-8" d="M182.2,317.5a5.492,5.492,0,0,0,4.2,0" transform="translate(-178.809 -306.839)"/>
              <path id="Path_817" data-name="Path 817" class="cls-8" d="M175.5,308.8a5.464,5.464,0,0,0,2.126,3.644" transform="translate(-175.5 -302.542)"/>
            </g>
          </g>
          <g id="Group_706" data-name="Group 706" transform="translate(204.189)">
            <circle id="Ellipse_69" data-name="Ellipse 69" class="cls-4" cx="23.334" cy="23.334" r="23.334"/>
            <path id="Path_818" data-name="Path 818" class="cls-5" d="M556.6,291.1a16.7,16.7,0,1,0,16.7-16.7,16.688,16.688,0,0,0-16.7,16.7" transform="translate(-550.02 -267.769)"/>
            <path id="Path_819" data-name="Path 819" class="cls-6" d="M560.9,293.227A14.552,14.552,0,1,0,575.478,278.7,14.549,14.549,0,0,0,560.9,293.227Z" transform="translate(-552.143 -269.893)"/>
            <circle id="Ellipse_70" data-name="Ellipse 70" class="cls-7" cx="2.784" cy="2.784" r="2.784" transform="translate(20.551 20.55)"/>
            <g id="Group_702" data-name="Group 702" transform="translate(9.617 9.415)">
              <path id="Path_820" data-name="Path 820" class="cls-8" d="M585.3,281.52a11.1,11.1,0,0,0-3.7.607,16.278,16.278,0,0,1-.81-1.518,13.431,13.431,0,0,1,4.556-.709,14.725,14.725,0,0,1,4.5.709c-.2.4-.456.861-.759,1.518a12.4,12.4,0,0,0-3.8-.607" transform="translate(-571.588 -279.9)"/>
              <path id="Path_821" data-name="Path 821" class="cls-8" d="M608.379,290.953A13.717,13.717,0,0,0,606,288.017a13.277,13.277,0,0,0,.86-1.417,13.383,13.383,0,0,1,2.936,3.543,15.641,15.641,0,0,1,1.62,4.353h-1.721a10.386,10.386,0,0,0-1.316-3.543" transform="translate(-584.032 -283.209)"/>
              <path id="Path_822" data-name="Path 822" class="cls-8" d="M608.379,316.143a11.091,11.091,0,0,0,1.316-3.543c.709,0,1.265.051,1.721.051a13.92,13.92,0,0,1-1.62,4.3,15.427,15.427,0,0,1-2.936,3.543c-.2-.354-.557-.81-.86-1.417a12.113,12.113,0,0,0,2.379-2.936" transform="translate(-584.032 -296.048)"/>
              <path id="Path_823" data-name="Path 823" class="cls-8" d="M585.206,331.107a12.837,12.837,0,0,0,3.7-.607,14.051,14.051,0,0,1,.759,1.468,13.362,13.362,0,0,1-4.5.759,14.815,14.815,0,0,1-4.555-.759c.2-.354.506-.86.81-1.468a13.834,13.834,0,0,0,3.8.607" transform="translate(-571.489 -304.888)"/>
              <path id="Path_824" data-name="Path 824" class="cls-8" d="M565.637,316.143a13.529,13.529,0,0,0,2.328,2.936c-.354.607-.658,1.063-.86,1.417a13.216,13.216,0,0,1-2.885-3.543,13.922,13.922,0,0,1-1.62-4.3c.4,0,.962-.051,1.67-.051a16,16,0,0,0,1.367,3.543" transform="translate(-562.6 -296.048)"/>
              <path id="Path_825" data-name="Path 825" class="cls-8" d="M565.637,290.953a13.169,13.169,0,0,0-1.367,3.543,15.29,15.29,0,0,1-1.67-.051,13.166,13.166,0,0,1,1.62-4.3A14.056,14.056,0,0,1,567.1,286.6a14.73,14.73,0,0,1,.861,1.417,14.872,14.872,0,0,0-2.328,2.936" transform="translate(-562.6 -283.209)"/>
            </g>
            <g id="Group_703" data-name="Group 703" transform="translate(11.288 11.034)">
              <path id="Path_826" data-name="Path 826" class="cls-9" d="M583.362,285.53c-.354-.658-.709-1.265-.962-1.822a11.1,11.1,0,0,1,3.7-.607,11.313,11.313,0,0,1,3.7.607c-.3.557-.658,1.164-.962,1.822a9.92,9.92,0,0,0-2.733-.4A9.642,9.642,0,0,0,583.362,285.53Z" transform="translate(-574.048 -283.1)"/>
              <path id="Path_827" data-name="Path 827" class="cls-9" d="M603.9,291.172c.4-.607.709-1.164,1.063-1.772a12.342,12.342,0,0,1,2.379,2.936,11.553,11.553,0,0,1,1.316,3.543c-.658.051-1.316.051-2.075.1a10.135,10.135,0,0,0-1.012-2.581A9.5,9.5,0,0,0,603.9,291.172Z" transform="translate(-584.666 -286.211)"/>
              <path id="Path_828" data-name="Path 828" class="cls-9" d="M606.683,312.5c.709,0,1.417.051,2.075.051a11.665,11.665,0,0,1-3.7,6.479c-.354-.557-.709-1.164-1.063-1.772a12.071,12.071,0,0,0,1.721-2.177A12.234,12.234,0,0,0,606.683,312.5Z" transform="translate(-584.715 -297.619)"/>
              <path id="Path_829" data-name="Path 829" class="cls-9" d="M588.828,327a15.812,15.812,0,0,1,.962,1.822,12.836,12.836,0,0,1-3.7.607,12.554,12.554,0,0,1-3.7-.607c.3-.607.658-1.215.962-1.822a9.644,9.644,0,0,0,2.733.4A9.92,9.92,0,0,0,588.828,327Z" transform="translate(-574.048 -304.779)"/>
              <path id="Path_830" data-name="Path 830" class="cls-9" d="M570.758,317.258c-.354.607-.709,1.215-1.063,1.772a12.158,12.158,0,0,1-2.328-2.936A14.283,14.283,0,0,1,566,312.551c.658,0,1.367-.051,2.075-.051a11.165,11.165,0,0,0,1.063,2.531A7.87,7.87,0,0,0,570.758,317.258Z" transform="translate(-565.949 -297.619)"/>
              <path id="Path_831" data-name="Path 831" class="cls-9" d="M567.975,295.98c-.709-.051-1.417-.051-2.075-.1a14.592,14.592,0,0,1,1.367-3.543A13.528,13.528,0,0,1,569.6,289.4c.354.607.709,1.164,1.063,1.772a9.964,9.964,0,0,0-1.67,2.177A12.837,12.837,0,0,0,567.975,295.98Z" transform="translate(-565.9 -286.211)"/>
            </g>
            <g id="Group_704" data-name="Group 704" transform="translate(13.363 13.009)">
              <path id="Path_832" data-name="Path 832" class="cls-6" d="M587.541,291h-1.114c-.2,0-.354-.1-.506-.354-.051-.152-.86-1.67-1.721-3.239a9.644,9.644,0,0,1,2.733-.4,9.922,9.922,0,0,1,2.733.4c-.861,1.569-1.721,3.088-1.772,3.239A.416.416,0,0,1,587.541,291Z" transform="translate(-577.012 -287)"/>
              <path id="Path_833" data-name="Path 833" class="cls-6" d="M600.392,297.507c-.1-.152-.253-.456-.253-.456s-.2-.354-.3-.506-.1-.354.1-.607c.051-.1.962-1.569,1.923-3.138a12.072,12.072,0,0,1,1.721,2.177,8.56,8.56,0,0,1,1.012,2.581c-1.822.051-3.543.1-3.644.1A.421.421,0,0,1,600.392,297.507Z" transform="translate(-584.701 -289.864)"/>
              <path id="Path_834" data-name="Path 834" class="cls-6" d="M599.835,313.351l.3-.456a4.442,4.442,0,0,1,.253-.506.491.491,0,0,1,.557-.2c.152,0,1.873.051,3.644.1a9.131,9.131,0,0,1-1.012,2.531A10.529,10.529,0,0,1,601.86,317c-.911-1.569-1.873-3.037-1.923-3.138A.353.353,0,0,1,599.835,313.351Z" transform="translate(-584.701 -299.432)"/>
              <path id="Path_835" data-name="Path 835" class="cls-6" d="M586.526,319.8h1.114a.509.509,0,0,1,.456.4c.1.1.86,1.62,1.772,3.24a9.922,9.922,0,0,1-2.733.4,9.644,9.644,0,0,1-2.733-.4c.81-1.62,1.67-3.138,1.721-3.24C586.171,319.9,586.323,319.8,586.526,319.8Z" transform="translate(-577.111 -303.198)"/>
              <path id="Path_836" data-name="Path 836" class="cls-6" d="M574.2,312.528c.1.152.3.506.3.506a2.919,2.919,0,0,1,.253.456.544.544,0,0,1-.051.607c-.051.1-.962,1.569-1.974,3.138a9.959,9.959,0,0,1-1.67-2.177A9.268,9.268,0,0,1,570,312.528c1.822-.051,3.594-.1,3.7-.1C573.948,312.275,574.151,312.376,574.2,312.528Z" transform="translate(-570 -299.519)"/>
              <path id="Path_837" data-name="Path 837" class="cls-6" d="M574.758,296.644a4.521,4.521,0,0,1-.253.506l-.3.456a.505.505,0,0,1-.506.253c-.152,0-1.923-.051-3.7-.1a12.624,12.624,0,0,1,1.063-2.581,8.889,8.889,0,0,1,1.67-2.177c.962,1.569,1.923,3.037,1.974,3.138A.613.613,0,0,1,574.758,296.644Z" transform="translate(-570 -289.963)"/>
            </g>
            <path id="Path_838" data-name="Path 838" class="cls-8" d="M573.2,307.462a1.7,1.7,0,0,1,1.721-1.67,15.168,15.168,0,0,1,1.923-.152c.4,0,.709-.051.709-.709s-.354-.709-.709-.709a15.782,15.782,0,0,1-1.923-.152,1.7,1.7,0,0,1-1.721-1.67" transform="translate(-558.217 -281.596)"/>
            <path id="Path_839" data-name="Path 839" class="cls-8" d="M577.1,293.23a1.673,1.673,0,0,1,2.278.658c.81,1.215.86,1.265,1.063,1.62.2.3.4.607.962.253s.456-.658.253-.962a11.4,11.4,0,0,1-.81-1.721,1.612,1.612,0,0,1,.607-2.278" transform="translate(-560.143 -275.868)"/>
            <path id="Path_840" data-name="Path 840" class="cls-8" d="M593.278,290.7a1.68,1.68,0,0,1,.658,2.278c-.658,1.316-.658,1.367-.81,1.721-.2.354-.354.658.253.962s.759.051.962-.253a13.256,13.256,0,0,1,1.063-1.62,1.78,1.78,0,0,1,2.278-.658" transform="translate(-567.969 -275.819)"/>
            <path id="Path_841" data-name="Path 841" class="cls-8" d="M601.9,302.5a1.687,1.687,0,0,1-1.67,1.67,15.163,15.163,0,0,1-1.924.152c-.4,0-.709.051-.709.709,0,.709.354.709.709.709a15.784,15.784,0,0,1,1.924.152,1.687,1.687,0,0,1,1.67,1.67" transform="translate(-570.267 -281.646)"/>
            <path id="Path_842" data-name="Path 842" class="cls-8" d="M597.581,316.6a1.623,1.623,0,0,1-2.278-.658,11.009,11.009,0,0,1-1.063-1.569c-.2-.354-.405-.607-.962-.3-.607.354-.456.658-.253.962.2.354.2.4.81,1.721a1.68,1.68,0,0,1-.658,2.328" transform="translate(-567.92 -287.291)"/>
            <path id="Path_843" data-name="Path 843" class="cls-8" d="M581.453,319.179a1.741,1.741,0,0,1-.607-2.328c.607-1.316.658-1.367.81-1.721.2-.354.3-.658-.253-.962-.607-.3-.759-.051-.962.3s-.253.4-1.063,1.569a1.729,1.729,0,0,1-2.278.658" transform="translate(-560.143 -287.341)"/>
            <g id="Group_705" data-name="Group 705" transform="translate(17.817 17.785)">
              <path id="Path_844" data-name="Path 844" class="cls-8" d="M580.926,298.8a5.644,5.644,0,0,0-2.126,3.594" transform="translate(-578.8 -297.604)"/>
              <path id="Path_845" data-name="Path 845" class="cls-8" d="M589.7,296.874a5.272,5.272,0,0,0-4.2,0" transform="translate(-582.109 -296.437)"/>
              <path id="Path_846" data-name="Path 846" class="cls-8" d="M598.426,302.394A5.249,5.249,0,0,0,596.3,298.8" transform="translate(-587.442 -297.604)"/>
              <path id="Path_847" data-name="Path 847" class="cls-8" d="M596.4,312.494a5.52,5.52,0,0,0,2.126-3.594" transform="translate(-587.491 -302.592)"/>
              <path id="Path_848" data-name="Path 848" class="cls-8" d="M585.5,317.5a5.492,5.492,0,0,0,4.2,0" transform="translate(-582.109 -306.839)"/>
              <path id="Path_849" data-name="Path 849" class="cls-8" d="M578.9,308.8a5.464,5.464,0,0,0,2.126,3.644" transform="translate(-578.849 -302.542)"/>
            </g>
          </g>
        </g>
        <g id="Group_710" data-name="Group 710" transform="translate(146.59 71.167)">
          <g id="Group_708" data-name="Group 708" transform="translate(38.97 0)">
            <path id="Path_850" data-name="Path 850" class="cls-6" d="M444.367,201.6a.682.682,0,0,1,.709.658v1.772a.716.716,0,0,1-.709.658H430.7v-3.037h13.667Z" transform="translate(-426.848 -201.6)"/>
            <path id="Path_851" data-name="Path 851" class="cls-6" d="M423.855,201.6h3.138v3.037h-3.138a.7.7,0,0,1-.759-.658v-1.772C423.045,201.9,423.4,201.6,423.855,201.6Z" transform="translate(-423.09 -201.6)"/>
          </g>
          <g id="Group_709" data-name="Group 709" transform="translate(0 0)">
            <path id="Path_852" data-name="Path 852" class="cls-6" d="M346.859,201.6a.7.7,0,0,0-.759.658v1.721a.735.735,0,0,0,.759.709h13.616v-3.037H346.859Z" transform="translate(-346.1 -201.6)"/>
            <path id="Path_853" data-name="Path 853" class="cls-6" d="M377.488,201.6H374.4v3.037h3.088a.7.7,0,0,0,.759-.658v-1.772C378.3,201.9,377.943,201.6,377.488,201.6Z" transform="translate(-360.075 -201.6)"/>
          </g>
        </g>
        <g id="Group_711" data-name="Group 711" transform="translate(0 85.644)">
          <path id="Path_854" data-name="Path 854" class="cls-6" d="M642.031,234.3a1.1,1.1,0,0,1,.253.2c2.733,2.733,7.137,5.618,12.907,9.314a4.541,4.541,0,0,0,1.62,1.215,3.151,3.151,0,0,1,2.835,3.391l-2.126-.1s.253,1.215.354,1.67a4.139,4.139,0,0,1,2.328,3.9v7.39c0,1.316-.658,1.974-1.569,1.974.1,2.48-.354,5.416-.759,5.872.557,0,1.164.354.658,1.114a27.749,27.749,0,0,1-2.48,3.594c-1.316,1.518-2.733,1.67-4.707,1.873s-15.641.456-16.6.456a1.33,1.33,0,0,1-1.417-1.316v-8.757A27.012,27.012,0,0,0,623.1,244.93Z" transform="translate(-336.301 -232.225)"/>
          <path id="Path_855" data-name="Path 855" class="cls-6" d="M131.58,260.7a26.963,26.963,0,0,0-9.415,13.413H108.6V260.7Z" transform="translate(-82.225 -245.262)"/>
          <path id="Path_856" data-name="Path 856" class="cls-6" d="M57,298.556c.2,0,2.379-.3,2.632-.3a.134.134,0,0,0,.152-.152v8.858a2.941,2.941,0,0,1-3.037-2.328,25.408,25.408,0,0,1-.253-4.859C56.5,298.859,56.75,298.556,57,298.556Z" transform="translate(-56.494 -263.731)"/>
          <path id="Path_857" data-name="Path 857" class="cls-6" d="M63,279.68h0s.456-5.568.709-9.87,3.644-3.948,3.644-3.948v-3.7c0-1.012.051-1.367,1.974-1.367H86.081v24.043H63Z" transform="translate(-59.707 -245.311)"/>
          <path id="Path_858" data-name="Path 858" class="cls-6" d="M86.081,308.2v3.594H83.753a6.063,6.063,0,0,1-3.391.861h-8.3c-3.644,0-7.542-.709-8.6-.709H63V308.2Z" transform="translate(-59.707 -268.719)"/>
          <path id="Path_859" data-name="Path 859" class="cls-6" d="M459.828,260.2c.81,0,.861.456.658,1.772-1.114,5.72-3.948,11.338-13.262,11.338H424.7V260.251Z" transform="translate(-238.325 -245.015)"/>
          <path id="Path_860" data-name="Path 860" class="cls-6" d="M415.515,260.3v13.059H406.1V260.351Z" transform="translate(-229.14 -245.064)"/>
          <path id="Path_861" data-name="Path 861" class="cls-6" d="M233.734,260.6v12.907h-5.821A27.76,27.76,0,0,0,218.6,260.6Z" transform="translate(-136.547 -245.212)"/>
          <path id="Path_862" data-name="Path 862" class="cls-6" d="M328.272,260.4v13.009H248.5V260.5Z" transform="translate(-151.312 -245.114)"/>
          <path id="Path_863" data-name="Path 863" class="cls-6" d="M680.2,230.2c1.316.051,2.632.2,2.632.2a6.379,6.379,0,0,1,3.341,3.442c0,.4-.354.456-.709.456h-1.822s-.962-.1-2.126-.152A30.12,30.12,0,0,0,680.2,230.2Z" transform="translate(-364.499 -230.2)"/>
          <path id="Path_864" data-name="Path 864" class="cls-6" d="M684.4,243.3c1.012.051,1.923.152,1.923.152a3.381,3.381,0,0,1,2.835,2.581c0,.4,0,.759-.709.759h-1.62s-.709-.1-1.67-.152C684.906,245.578,684.653,244.414,684.4,243.3Z" transform="translate(-366.573 -236.669)"/>
        </g>
        <path id="Path_865" data-name="Path 865" class="cls-8" d="M69.18,262.066v3.7a3.292,3.292,0,0,0-2.48.911v-4.049c0-2.025.962-1.923,3.7-1.923h0c-1.164.152-1.215.506-1.215,1.367" transform="translate(-61.534 -159.617)"/>
        <g id="Group_712" data-name="Group 712" transform="translate(7.596 61.651)">
          <path id="Path_866" data-name="Path 866" class="cls-6" d="M75.094,193.226c.759,6.935,1.923,19.234,1.923,21.411s-.962,2.227-2.379,2.278c-.759.051-2.075.051-3.088.051L71.5,187C72.968,187.152,74.486,187.607,75.094,193.226Z" transform="translate(-71.5 -184.874)"/>
          <path id="Path_867" data-name="Path 867" class="cls-6" d="M74.638,214.841c1.417-.051,2.379-.1,2.379-2.278s-1.114-14.476-1.923-21.411c-.658-5.618-2.177-6.074-3.594-6.226v-1.417c0-.607,0-.709,1.114-.709s3.644.4,4.556,4.2c.81,3.594,4.2,21.208,4.606,35.28l-10.225.051v-7.39C72.563,214.891,73.828,214.891,74.638,214.841Z" transform="translate(-71.5 -182.8)"/>
        </g>
        <path id="Path_868" data-name="Path 868" class="cls-8" d="M224.4,265.7H358.13c1.974,0,1.164.709.607,1.822-.607,1.114-2.379,4.4-4.3,5.315-1.923.861-1.923,1.012-10.174,1.012H229.867" transform="translate(-139.411 -162.087)"/>
        <path id="Path_869" data-name="Path 869" class="cls-10" d="M110.423,265.7h0Z" transform="translate(-63.954 -162.087)"/>
        <path id="Path_870" data-name="Path 870" class="cls-8" d="M91.8,260.7c0,2.227-.456,13.413,8.5,13.413" transform="translate(-73.925 -159.618)"/>
        <path id="Path_871" data-name="Path 871" class="cls-8" d="M116.165,273.949H101.588c-2.581,0-7.188-1.164-7.188-8.149" transform="translate(-75.213 -162.136)"/>
        <path id="Path_872" data-name="Path 872" class="cls-8" d="M71.032,271.3a2.389,2.389,0,0,0-2.632,2.379v16.3" transform="translate(-62.373 -164.853)"/>
        <g id="Group_713" data-name="Group 713" transform="translate(224.935 10.225)">
          <path id="Path_873" data-name="Path 873" class="cls-6" d="M537.55,121c-7.795-7.137-22.626-22.373-32.041-34.723-.3-.4.2-.962.607-1.063,1.114-.253,3.746-.759,6.175-1.316,6.884,7.036,36.8,38.317,41.961,43.784C550.356,128.544,545.446,128.291,537.55,121Z" transform="translate(-503.121 -82.533)"/>
          <path id="Path_874" data-name="Path 874" class="cls-6" d="M502.105,82.668c.81-.253,4.252-.962,6.58-1.468a4.766,4.766,0,0,1,.506.506l.81.81c-2.379.557-5.062,1.063-6.175,1.316-.4.1-.86.709-.607,1.063,9.364,12.351,24.245,27.586,32.04,34.723,7.9,7.289,12.806,7.593,16.653,6.631l.759.759c-3.189.607-6.934,3.644-18.981-7.441-8.6-7.947-23.689-23.486-32.7-35.634C500.688,83.225,500.992,82.972,502.105,82.668Z" transform="translate(-500.881 -81.2)"/>
        </g>
        <line id="Line_193" data-name="Line 193" class="cls-11" y1="97.691" transform="translate(176.96 3.239)"/>
        <line id="Line_194" data-name="Line 194" class="cls-11" y1="97.843" transform="translate(26.375 3.239)"/>
        <path id="Path_875" data-name="Path 875" class="cls-8" d="M71.6,179.793s.1-1.316.2-3.493" transform="translate(-63.954 -117.939)"/>
        <line id="Line_195" data-name="Line 195" class="cls-11" x1="0.304" y2="4.151" transform="translate(7.596 57.805)"/>
        <g id="Group_714" data-name="Group 714" transform="translate(4.103 15.084)">
          <path id="Path_876" data-name="Path 876" class="cls-8" d="M71.7,90.8c1.772.253,2.43.557,2.581,1.569a9.911,9.911,0,0,0-2.683-.658c.051-.506.1-.86.1-.911" transform="translate(-68.057 -90.8)"/>
          <path id="Path_877" data-name="Path 877" class="cls-8" d="M65.157,178.156V177.7c.759,0,2.177.051,3.037.051-.152.4-.4.709-.709.709H64.6a1.2,1.2,0,0,1,.557-.3" transform="translate(-64.6 -133.714)"/>
          <path id="Path_878" data-name="Path 878" class="cls-8" d="M71.6,92.6a9.472,9.472,0,0,1,2.683.658,10.44,10.44,0,0,1-.051,2.126c-.253,2.43-.86,13.262-1.468,23.385" transform="translate(-68.057 -91.689)"/>
          <path id="Path_879" data-name="Path 879" class="cls-8" d="M72.665,144.2H71.7l-.3,4.606h.962" transform="translate(-67.958 -117.171)"/>
          <path id="Path_880" data-name="Path 880" class="cls-8" d="M69.5,123.374c-.253,4.252-.506,8.048-.658,10.781a6.545,6.545,0,0,1-.2,1.67c-.86,0-2.227-.051-3.037-.051.051-15.742,2.379-38.216,2.986-43.075" transform="translate(-65.094 -91.738)"/>
        </g>
        <path id="Path_881" data-name="Path 881" class="cls-9" d="M248.5,286.1v0Z" transform="translate(-151.312 -172.161)"/>
        <circle id="Ellipse_71" data-name="Ellipse 71" class="cls-12" cx="0.962" cy="0.962" r="0.962" transform="translate(18.934 76.128)"/>
        <circle id="Ellipse_72" data-name="Ellipse 72" class="cls-13" cx="0.456" cy="0.456" r="0.456" transform="translate(19.44 76.634)"/>
        <line id="Line_196" data-name="Line 196" class="cls-11" y2="15.134" transform="translate(176.96 113.939)"/>
        <path id="Path_882" data-name="Path 882" class="cls-8" d="M485.982,123.282v-.2a9.883,9.883,0,0,0-2.733-6.985c-2.177-2.177-21.715-23.689-23.891-25.865s-6.58-6.53-18.526-6.53h-24.7c-1.62,0-2.531.607-2.531,3.746v68.029s1.62.709,2.936,1.215,2.733.506,2.733,5.264V173.09" transform="translate(-232.844 -72.21)"/>
        <path id="Path_883" data-name="Path 883" class="cls-8" d="M424.7,235.532v8.048a2.758,2.758,0,0,0,2.885,2.683h47.023c1.873,0,3.341-.456,3.341-3.7,0-3.341-.253-17.311,10.832-24.9,2.531-1.873,2.885-3.493,2.885-5.062,0-1.063-.1-17.412-.2-28.9" transform="translate(-238.325 -121.593)"/>
        <line id="Line_197" data-name="Line 197" class="cls-11" x1="3.746" transform="translate(176.96 15.236)"/>
        <line id="Line_198" data-name="Line 198" class="cls-11" x1="1.62" y2="1.62" transform="translate(252.126 44.745)"/>
        <path id="Path_884" data-name="Path 884" class="cls-8" d="M647.8,241.3a44.275,44.275,0,0,1,10.63,23.689s.557,3.29.759,4.96c.253,1.721,1.114,4.809,6.884,5.163h3.9" transform="translate(-348.499 -150.038)"/>
        <path id="Path_885" data-name="Path 885" class="cls-8" d="M644.329,282.708v-4.049c0-14.831-4.657-23.891-10.63-29.459" transform="translate(-341.536 -153.939)"/>
        <g id="Group_715" data-name="Group 715" transform="translate(2.496 82.556)">
          <path id="Path_886" data-name="Path 886" class="cls-6" d="M61.463,224.1h3.29c.658,0,.911.81.911,1.923,0,.456-.051,2.227-.051,4.353H61.463C61.412,228.251,61.412,226.175,61.463,224.1Z" transform="translate(-61.425 -224.1)"/>
          <path id="Path_887" data-name="Path 887" class="cls-8" d="M66.1,236.5c0,3.239,0,7.188-.051,7.694-.051.81.152,1.721-1.012,1.721H62.4" transform="translate(-61.906 -230.224)"/>
          <line id="Line_199" data-name="Line 199" class="cls-11" x1="0.101" transform="translate(0.392 15.641)"/>
          <path id="Path_888" data-name="Path 888" class="cls-8" d="M61.854,245.864c-.2-2.986-.3-6.226-.354-9.364" transform="translate(-61.462 -230.224)"/>
          <line id="Line_200" data-name="Line 200" class="cls-11" x2="4.151" transform="translate(0.038 6.276)"/>
        </g>
        <path id="Path_889" data-name="Path 889" class="cls-6" d="M59.675,211.791H58a.4.4,0,0,1-.4-.4V208.8a.4.4,0,0,1,.4-.4h1.772C59.777,209.514,59.726,210.627,59.675,211.791Z" transform="translate(-57.04 -133.791)"/>
        <circle id="Ellipse_73" data-name="Ellipse 73" class="cls-13" cx="1.114" cy="1.114" r="1.114" transform="translate(186.375 71.674)"/>
        <g id="Group_718" data-name="Group 718" transform="translate(149.677 69.092)">
          <g id="Group_716" data-name="Group 716" transform="translate(41.405 0)">
            <path id="Path_890" data-name="Path 890" class="cls-8" d="M443.616,207.6a6.6,6.6,0,0,1-9.516,0" transform="translate(-434.049 -202.488)"/>
            <line id="Line_201" data-name="Line 201" class="cls-11" x2="9.516" transform="translate(0.051 5.112)"/>
            <path id="Path_891" data-name="Path 891" class="cls-8" d="M434,199.575a6.064,6.064,0,0,1,4.809-2.075,5.838,5.838,0,0,1,4.809,2.075" transform="translate(-434 -197.5)"/>
            <line id="Line_202" data-name="Line 202" class="cls-11" x1="9.617" transform="translate(0 2.075)"/>
          </g>
          <g id="Group_717" data-name="Group 717" transform="translate(0 0)">
            <path id="Path_892" data-name="Path 892" class="cls-14" d="M352.3,207.6a5.832,5.832,0,0,0,4.758,1.974,5.754,5.754,0,0,0,4.758-1.974" transform="translate(-352.249 -202.488)"/>
            <line id="Line_203" data-name="Line 203" class="cls-11" x1="9.516" transform="translate(0.051 5.112)"/>
            <path id="Path_893" data-name="Path 893" class="cls-14" d="M361.817,199.575a5.839,5.839,0,0,0-4.809-2.075,5.765,5.765,0,0,0-4.809,2.075" transform="translate(-352.2 -197.5)"/>
            <line id="Line_204" data-name="Line 204" class="cls-11" x2="9.617" transform="translate(0 2.075)"/>
          </g>
        </g>
        <g id="Group_720" data-name="Group 720" transform="translate(237.597 34.47)">
          <g id="Group_719" data-name="Group 719" transform="translate(0.021)">
            <path id="Path_894" data-name="Path 894" class="cls-6" d="M530.428,135.123a2.542,2.542,0,0,0-.607.1A46.44,46.44,0,0,0,528.1,129.1c1.974,2.177,3.9,4.252,5.669,6.226C532.6,135.275,530.428,135.123,530.428,135.123Z" transform="translate(-527.005 -129.1)"/>
            <path id="Path_895" data-name="Path 895" class="cls-6" d="M527.841,168.391c2.025-.152,6.479,0,7.188-3.847.658-3.8,1.012-15.337,1.012-15.337a2.465,2.465,0,0,0-.051-.607c2.328,2.531,3.9,4.353,4.151,4.606.911.911,1.266,1.265,1.266,2.177,0,1.164.051,5.568.051,11.035,0,.253-.152.456-.911.81-.709.354-9.567,3.746-12.2,4.657h0c-1.569.607-2.075-.354-2.278-1.265a8.99,8.99,0,0,1,0-3.088A1.655,1.655,0,0,0,527.841,168.391Z" transform="translate(-525.936 -138.73)"/>
          </g>
          <path id="Path_896" data-name="Path 896" class="cls-6" d="M536.021,145.4c0-3.189-2.075-4.1-2.632-4.151-.658-.051-4.049-.253-4.049-.253-1.164,0-1.569.354-1.772,2.177-.1,1.569-1.67,11.136-1.67,19.285,0,.658-.152,2.278,1.923,2.177,2.025-.152,6.479,0,7.188-3.847C535.667,156.944,536.021,145.4,536.021,145.4Z" transform="translate(-525.895 -134.977)"/>
        </g>
        <path id="Path_897" data-name="Path 897" class="cls-8" d="M547.02,175.8a5.738,5.738,0,0,1-4.1,4.758,44.336,44.336,0,0,1-5.72.81" transform="translate(-293.881 -117.692)"/>
        <path id="Path_898" data-name="Path 898" class="cls-6" d="M465.254,139.512c-7.289-2.126-30.826-9.465-33.306-10.731-2.43-1.164-6.125-1.772-8.048-11.237-1.873-9.212-4.049-19.842-4.1-21.917v-.2c.1-1.417.152-6.125,6.479-6.125,6.378,0,19.589.152,21.613.354,2.075.152,9.162.81,14.173,6.125,2.227,2.328,7.491,8,12.6,13.717a44.294,44.294,0,0,1,1.721,6.125c-.709.1-1.012.658-1.164,2.075-.1,1.569-1.67,11.136-1.67,19.285a3.27,3.27,0,0,0,.152,1.316,11.679,11.679,0,0,0-.152,1.873C472.492,140.575,470.518,141.031,465.254,139.512Z" transform="translate(-235.905 -74.975)"/>
        <path id="Path_899" data-name="Path 899" class="cls-6" d="M626.2,186.1c21.816,6.125,27.434,18.02,30.522,33.863-5.77-3.644-10.174-6.53-12.907-9.314-2.733-2.683-11.946-11.591-13.565-12.755a9.492,9.492,0,0,1-3.189-5.467A47.266,47.266,0,0,1,626.2,186.1Z" transform="translate(-337.829 -122.778)"/>
        <path id="Path_900" data-name="Path 900" class="cls-8" d="M656.448,219.329c-4.707-2.986-8.706-5.669-11.237-8.149-2.683-2.632-12-11.591-13.616-12.806a8.487,8.487,0,0,1-2.885-5.062,36.454,36.454,0,0,1-.81-5.112c19.133,5.72,25.258,15.843,28.548,31.129" transform="translate(-338.672 -123.815)"/>
        <path id="Path_901" data-name="Path 901" class="cls-8" d="M665.033,273.159h10.022a1.4,1.4,0,0,0,1.417-1.67,15.254,15.254,0,0,0-.861-4.252c-.709-1.518-1.012-3.037-3.948-3.037H662.3" transform="translate(-355.659 -161.346)"/>
        <path id="Path_902" data-name="Path 902" class="cls-8" d="M680.781,291.628c.861-2.328.3-4.809-1.316-5.365-1.67-.607-3.644.81-4.556,3.189-.86,2.379-.3,4.809,1.367,5.365,1.62.607,3.594-.861,4.5-3.189" transform="translate(-361.688 -172.172)"/>
        <path id="Path_903" data-name="Path 903" class="cls-8" d="M680.537,292.094c.709-2.025.253-4.049-1.113-4.606-1.367-.506-3.088.709-3.847,2.733-.709,2.075-.253,4.1,1.113,4.606,1.367.456,3.088-.759,3.847-2.733" transform="translate(-362.052 -172.79)"/>
        <path id="Path_904" data-name="Path 904" class="cls-15" d="M675.558,291.42a6.231,6.231,0,0,1,.962-1.62,4.27,4.27,0,0,1,.456,4.1,6.232,6.232,0,0,1-.962,1.62C675.153,294.71,674.951,293.09,675.558,291.42Z" transform="translate(-362.034 -173.988)"/>
        <g id="Group_721" data-name="Group 721" transform="translate(314.841 83.467)">
          <path id="Path_905" data-name="Path 905" class="cls-9" d="M682.9,237.9c1.114.051,2.126.152,2.126.152s.354,1.417.557,2.733c0,0-.861-.1-1.923-.152Z" transform="translate(-680.673 -231.826)"/>
          <path id="Path_906" data-name="Path 906" class="cls-9" d="M678.5,225.9h2.126a6.412,6.412,0,0,1,1.721.709h-.506s.1.709.2,1.62c0,0-1.316-.152-2.632-.2Z" transform="translate(-678.5 -225.9)"/>
          <path id="Path_907" data-name="Path 907" class="cls-9" d="M686.2,251.519c-.1-.557-.2-1.012-.3-1.518.911.051,1.67.152,1.67.152a9.361,9.361,0,0,1,.253,2.581A5.311,5.311,0,0,1,686.2,251.519Z" transform="translate(-682.154 -237.801)"/>
        </g>
        <path id="Path_908" data-name="Path 908" class="cls-8" d="M610.052,179.828s-13.717-4.5-16.552-6.428" transform="translate(-321.684 -116.507)"/>
        <g id="Group_722" data-name="Group 722" transform="translate(38.624 92.325)">
          <path id="Path_909" data-name="Path 909" class="cls-6" d="M563.28,243.4a27.035,27.035,0,0,1,27.08,27.029V271.9l-4.1.051a23.316,23.316,0,0,0-46.112.759l-3.948.051V270.48A27.046,27.046,0,0,1,563.28,243.4Z" transform="translate(-332.011 -243.4)"/>
          <path id="Path_910" data-name="Path 910" class="cls-6" d="M159.88,249.8a27.078,27.078,0,0,1,27.08,27.08v1.367l-3.746.1a23.338,23.338,0,0,0-46.669.607v.1l-3.746.1v-2.227A27.122,27.122,0,0,1,159.88,249.8Z" transform="translate(-132.8 -246.561)"/>
        </g>
        <path id="Path_911" data-name="Path 911" class="cls-9" d="M248.5,76.7v0Z" transform="translate(-151.312 -68.753)"/>
        <g id="Group_723" data-name="Group 723" transform="translate(26.375 55.729)">
          <path id="Path_912" data-name="Path 912" class="cls-16" d="M179.413,171.1H108.6v5.011l70.813.051Z" transform="translate(-108.6 -171.1)"/>
          <path id="Path_913" data-name="Path 913" class="cls-16" d="M248.5,176.162V171.1h3.847c1.873,0,7.643.962,7.643,4.3v.759Z" transform="translate(-177.687 -171.1)"/>
        </g>
        <rect id="Rectangle_1476" data-name="Rectangle 1476" class="cls-13" width="8.048" height="1.569" transform="translate(211.177 98.399)"/>
        <ellipse id="Ellipse_74" data-name="Ellipse 74" class="cls-13" cx="2.025" cy="1.012" rx="2.025" ry="1.012" transform="translate(179.592 106.397)"/>
        <path id="Path_914" data-name="Path 914" class="cls-8" d="M73.981,144.2H71.7l-.3,4.606h2.227Z" transform="translate(-63.855 -102.087)"/>
        <path id="Path_915" data-name="Path 915" class="cls-6" d="M64.554,298.7h.81a.435.435,0,0,1,.4.4v2.885a.4.4,0,0,1-.4.4h-.81a.361.361,0,0,1-.354-.4V299.1A.391.391,0,0,1,64.554,298.7Z" transform="translate(-60.299 -178.383)"/>
        <path id="Path_916" data-name="Path 916" class="cls-6" d="M60.6,272.967c.051-1.215,1.063-1.164,1.822-1.367a7.455,7.455,0,0,1,1.468.253,4.276,4.276,0,0,0-1.417,3.29c-.253,4.3-.709,9.87-.709,9.87h-.253a2.7,2.7,0,0,1-1.012-1.974C60.5,282.128,60.6,273.22,60.6,272.967Z" transform="translate(-58.472 -165.001)"/>
      </g>
      <g id="Group_728" data-name="Group 728" transform="translate(29.42 16.779)">
        <g id="Group_727" data-name="Group 727">
          <line id="Line_205" data-name="Line 205" class="cls-17" x2="169.162" transform="translate(3.594 3.796)"/>
          <g id="Group_725" data-name="Group 725">
            <path id="Path_917" data-name="Path 917" class="cls-18" d="M61.5,37.293a3.8,3.8,0,1,1,3.8-3.8A3.791,3.791,0,0,1,61.5,37.293Z" transform="translate(-57.7 -29.7)"/>
          </g>
          <g id="Group_726" data-name="Group 726" transform="translate(168.757)">
            <path id="Path_918" data-name="Path 918" class="cls-18" d="M394.9,37.293a3.8,3.8,0,1,0-3.8-3.8A3.791,3.791,0,0,0,394.9,37.293Z" transform="translate(-391.1 -29.7)"/>
          </g>
        </g>
      </g>
      <g id="Group_732" data-name="Group 732" transform="translate(15.196 41.632)">
        <g id="Group_731" data-name="Group 731">
          <line id="Line_206" data-name="Line 206" class="cls-17" y2="105.081" transform="translate(3.796 3.594)"/>
          <g id="Group_729" data-name="Group 729">
            <path id="Path_919" data-name="Path 919" class="cls-18" d="M29.6,82.6a3.8,3.8,0,1,1,3.8,3.8A3.791,3.791,0,0,1,29.6,82.6Z" transform="translate(-29.6 -78.8)"/>
          </g>
          <g id="Group_730" data-name="Group 730" transform="translate(0 104.726)">
            <path id="Path_920" data-name="Path 920" class="cls-18" d="M29.6,289.5a3.8,3.8,0,1,0,3.8-3.8A3.791,3.791,0,0,0,29.6,289.5Z" transform="translate(-29.6 -285.7)"/>
          </g>
        </g>
      </g>
      <g id="Group_733" data-name="Group 733" transform="translate(100.204)">
        <text id="Largo:_4_20m" data-name="Largo: 4,20m" class="cls-19" transform="translate(0 10)"><tspan x="0" y="0">Largo: 4,20m</tspan></text>
      </g>
      <g id="Group_735" data-name="Group 735" transform="translate(0 77.201)">
        <g id="Group_734" data-name="Group 734" transform="translate(0 0)">
          <text id="Alto:_1_76m" data-name="Alto: 1,76m" class="cls-19" transform="translate(10.109 50.547) rotate(-90)"><tspan x="0" y="0">Alto: 1,76m</tspan></text>
        </g>
      </g>
    </g>
    <g id="Group_770" data-name="Group 770" transform="translate(364.507 22.578)">
      <g id="Group_757" data-name="Group 757">
        <g id="Group_737" data-name="Group 737" transform="translate(161.055)">
          <path id="Path_921" data-name="Path 921" class="cls-20" d="M1075.45,165.113c.709-15.084,1.164-37,1.114-38.621-.051-2.328-1.924-22.626-2.632-27.283-.709-4.606-5.821-41.354-15.135-51.224,0,0-2.075-.3-4.708,1.822s-12.806,16.046-12.4,18.627c0,0,1.316,14.122,1.923,44.695,0,0,5.416-1.012,9.516.557,0,0,1.113,20.5.658,25.41,0,0-6.378-2.075-10.427-.607l-.759,16.754s8.807-2.48,11.591,2.835c1.772,3.341,1.974,13.16,1.569,16.4,0,0,9.769,3.29,15.742,6.985,0,0,1.417,2.177,2.835-2.531a134.8,134.8,0,0,0,1.114-13.818" transform="translate(-1041.677 -47.97)"/>
          <path id="Path_922" data-name="Path 922" class="cls-20" d="M1085.384,181.466s1.417,2.177,2.835-2.531,2.278-50.111,2.278-52.439c0-5.568-1.923-22.626-2.632-27.283-.709-4.606-5.821-41.354-15.134-51.224a5.49,5.49,0,0,0-2.835.658c-.253.152,8.909,10.478,14.375,55.071C1088.471,137.935,1085.232,181.263,1085.384,181.466Z" transform="translate(-1055.609 -47.974)"/>
          <path id="Path_923" data-name="Path 923" class="cls-21" d="M1042.1,82.5c4.353-4,15.236-12.7,15.236-12.7s8.2,19.386,9.162,47.732l-22.018.658" transform="translate(-1041.886 -58.75)"/>
        </g>
        <g id="Group_738" data-name="Group 738">
          <path id="Path_924" data-name="Path 924" class="cls-20" d="M724.61,165.113c-.709-15.084-1.164-37-1.114-38.621.051-2.328,1.923-22.626,2.632-27.283.709-4.606,5.821-41.354,15.134-51.224,0,0,2.075-.3,4.707,1.822s12.806,16.046,12.4,18.627c0,0-1.316,14.122-1.923,44.695,0,0-5.416-1.012-9.516.557,0,0-1.114,20.5-.658,25.41,0,0,6.378-2.075,10.427-.607l.759,16.754s-8.807-2.48-11.591,2.835c-1.772,3.341-1.974,13.16-1.569,16.4,0,0-9.769,3.29-15.742,6.985,0,0-1.417,2.177-2.834-2.531a134.783,134.783,0,0,1-1.114-13.818" transform="translate(-723.492 -47.97)"/>
          <path id="Path_925" data-name="Path 925" class="cls-20" d="M728.612,181.466s-1.417,2.177-2.834-2.531S723.5,128.824,723.5,126.5c0-5.568,1.923-22.626,2.632-27.283.709-4.606,5.821-41.354,15.134-51.224a5.49,5.49,0,0,1,2.835.658c.253.152-8.909,10.478-14.375,55.071C725.525,137.935,728.764,181.263,728.612,181.466Z" transform="translate(-723.496 -47.974)"/>
          <path id="Path_926" data-name="Path 926" class="cls-21" d="M768.2,82.5c-4.353-4-15.236-12.7-15.236-12.7s-8.2,19.386-9.162,47.732l22.018.658" transform="translate(-733.521 -58.75)"/>
        </g>
        <g id="Group_756" data-name="Group 756" transform="translate(29.918 2.698)">
          <path id="Path_927" data-name="Path 927" class="cls-22" d="M917.545,156.66c0-62.765-6.934-90.25-9.415-97.741a7.719,7.719,0,0,0-6.378-4.707c-6.023-.911-37.861-.911-51.275-.911-13.363,0-45.2,0-51.224.911a7.628,7.628,0,0,0-6.378,4.707c-2.43,7.491-9.415,34.976-9.415,97.741a2.564,2.564,0,0,0-.86,1.822c0,1.114.354,16.3,3.239,22.879,1.367,3.138,2.278,3.746,6.276,3.746H908.788c4,0,4.91-.607,6.276-3.746,2.885-6.58,3.24-21.765,3.24-22.879A2.678,2.678,0,0,0,917.545,156.66Z" transform="translate(-782.6 -53.3)"/>
          <path id="Path_928" data-name="Path 928" class="cls-21" d="M917.841,68.652s-42.569-.152-44.8-.152c-2.177,0-44.745.152-44.745.152" transform="translate(-805.168 -60.806)"/>
          <path id="Path_929" data-name="Path 929" class="cls-21" d="M1016.943,189.015c2.885-6.58,3.239-21.765,3.239-22.879a2.564,2.564,0,0,0-.86-1.822c0-16.5-.1-29.1-.2-41.152-.253-32.041-6.074-46.264-7.9-51.781,0,0-.911-2.531-6.023-2.581" transform="translate(-892.527 -60.954)"/>
          <path id="Path_930" data-name="Path 930" class="cls-21" d="M802.039,189.015c-2.885-6.58-3.24-21.765-3.24-22.879a2.564,2.564,0,0,1,.861-1.822c0-16.5.1-29.1.2-41.152.253-32.041,6.074-46.264,7.9-51.781,0,0,.911-2.531,6.023-2.581" transform="translate(-790.6 -60.954)"/>
          <g id="Group_739" data-name="Group 739" transform="translate(0.86 62.208)">
            <path id="Path_931" data-name="Path 931" class="cls-23" d="M792.449,201.255l.1-25.055h-4.758c-1.215,0-2.278.354-2.43,1.114-.658,6.833-1.063,14.78-1.063,23.942h8.149Z" transform="translate(-784.3 -176.2)"/>
            <path id="Path_932" data-name="Path 932" class="cls-23" d="M1032.9,201.255l-.1-25.055h4.809c1.215,0,2.278.354,2.43,1.114.658,6.833,1.063,14.78,1.063,23.942h-8.2Z" transform="translate(-907.017 -176.2)"/>
          </g>
          <g id="Group_740" data-name="Group 740" transform="translate(5.264 69.396)">
            <path id="Path_933" data-name="Path 933" class="cls-21" d="M793,191.26a.853.853,0,0,1,.86-.86.824.824,0,0,1,.861.86.853.853,0,0,1-.861.86.887.887,0,0,1-.86-.86" transform="translate(-793 -190.4)"/>
            <path id="Path_934" data-name="Path 934" class="cls-21" d="M1038.772,191.26a.853.853,0,0,0-.86-.86.866.866,0,0,0-.911.86.9.9,0,0,0,.911.86.887.887,0,0,0,.86-.86" transform="translate(-913.495 -190.4)"/>
          </g>
          <g id="Group_741" data-name="Group 741" transform="translate(3.948 77.292)">
            <path id="Path_935" data-name="Path 935" class="cls-21" d="M790.4,208.177A2.16,2.16,0,0,1,792.577,206a2.13,2.13,0,0,1,2.177,2.177,2.16,2.16,0,0,1-2.177,2.177,2.193,2.193,0,0,1-2.177-2.177" transform="translate(-790.4 -206)"/>
            <path id="Path_936" data-name="Path 936" class="cls-21" d="M1038.8,208.177a2.2,2.2,0,0,0-4.4,0,2.2,2.2,0,0,0,4.4,0" transform="translate(-910.895 -206)"/>
          </g>
          <g id="Group_743" data-name="Group 743" transform="translate(1.518 104.878)">
            <g id="Group_742" data-name="Group 742">
              <path id="Path_937" data-name="Path 937" class="cls-24" d="M785.6,269.662v-5.77c0-1.873.962-3.391,2.126-3.391h14.932c5.77,0,7.441,19.336,7.441,19.336-.3-1.265-9.06-1.62-16.046-1.367C789.5,278.621,785.6,269.662,785.6,269.662Z" transform="translate(-785.6 -260.5)"/>
            </g>
          </g>
          <g id="Group_745" data-name="Group 745" transform="translate(109.788 104.878)">
            <g id="Group_744" data-name="Group 744">
              <path id="Path_938" data-name="Path 938" class="cls-24" d="M1024,269.662v-5.77c0-1.873-.962-3.391-2.126-3.391h-14.932c-5.771,0-7.441,19.336-7.441,19.336.3-1.265,9.061-1.62,16.046-1.367C1020.05,278.621,1024,269.662,1024,269.662Z" transform="translate(-999.5 -260.5)"/>
            </g>
          </g>
          <g id="Group_750" data-name="Group 750" transform="translate(0.051 103.309)">
            <g id="Group_746" data-name="Group 746">
              <path id="Path_939" data-name="Path 939" class="cls-25" d="M800.163,276.483c-6.479,0-7.694-5.973-7.694-9.516v-4H785.99V257.4h-2.43a2.564,2.564,0,0,0-.86,1.822c0,1.114.354,16.3,3.24,22.879,1.367,3.138,2.278,3.746,6.276,3.746h9.87v-9.415h-1.923Z" transform="translate(-782.7 -257.4)"/>
              <path id="Path_940" data-name="Path 940" class="cls-25" d="M1031.126,257.5h-2.43v5.568h-6.479v4c0,3.493-1.266,9.516-7.694,9.516H1012.6V286h9.87c4,0,4.91-.607,6.276-3.746,2.885-6.58,3.24-21.765,3.24-22.879A2.746,2.746,0,0,0,1031.126,257.5Z" transform="translate(-896.232 -257.449)"/>
              <path id="Path_941" data-name="Path 941" class="cls-25" d="M909.441,295.1H902v9.415h14.932V295.1Z" transform="translate(-841.614 -276.017)"/>
              <rect id="Rectangle_1477" data-name="Rectangle 1477" class="cls-26" width="41" height="9.415" transform="translate(19.386 19.083)"/>
              <rect id="Rectangle_1478" data-name="Rectangle 1478" class="cls-26" width="41" height="9.415" transform="translate(75.318 19.083)"/>
            </g>
            <g id="Group_747" data-name="Group 747" transform="translate(1.61 6.985)">
              <path id="Path_942" data-name="Path 942" class="cls-21" d="M786.245,271.2c-.253,0-.4.152-.354.4,0,0,1.012,12.6,2.835,16.754,1.164,2.632,4.657,2.936,4.657,2.936h.81" transform="translate(-785.881 -271.2)"/>
              <line id="Line_207" data-name="Line 207" class="cls-20" x2="7.643" transform="translate(8.311 20.095)"/>
              <path id="Path_943" data-name="Path 943" class="cls-21" d="M817.4,310.5a.4.4,0,0,0,.4-.4" transform="translate(-801.446 -290.41)"/>
              <line id="Line_208" data-name="Line 208" class="cls-20" y1="5.821" transform="translate(16.359 13.869)"/>
              <path id="Path_944" data-name="Path 944" class="cls-21" d="M808.817,287.242c0-.3-.3-.607-.86-.607-.506,0-8.656.658-8.656-10.225,0-.253-.1-.607-.1-.81" transform="translate(-792.458 -273.373)"/>
              <line id="Line_209" data-name="Line 209" class="cls-20" y1="1.873" transform="translate(6.742 0.354)"/>
              <path id="Path_945" data-name="Path 945" class="cls-21" d="M798.8,271.554a.361.361,0,0,0-.4-.354" transform="translate(-792.063 -271.2)"/>
              <line id="Line_210" data-name="Line 210" class="cls-20" x1="6.023" transform="translate(0.364 0)"/>
              <path id="Path_946" data-name="Path 946" class="cls-21" d="M1039.147,271.2a.337.337,0,0,1,.354.4s-1.012,12.6-2.834,16.754c-1.164,2.632-4.657,2.936-4.657,2.936h-.81" transform="translate(-907.027 -271.2)"/>
              <line id="Line_211" data-name="Line 211" class="cls-20" x1="7.643" transform="translate(116.53 20.095)"/>
              <path id="Path_947" data-name="Path 947" class="cls-21" d="M1015.7,310.5a.373.373,0,0,1-.405-.4" transform="translate(-899.175 -290.41)"/>
              <line id="Line_212" data-name="Line 212" class="cls-20" y1="5.821" transform="translate(116.125 13.869)"/>
              <path id="Path_948" data-name="Path 948" class="cls-21" d="M1015.3,287.242c0-.3.3-.607.861-.607.506,0,8.656.658,8.656-10.225,0-.253.051-.607.051-.81" transform="translate(-899.175 -273.373)"/>
              <line id="Line_213" data-name="Line 213" class="cls-20" y1="1.873" transform="translate(125.692 0.354)"/>
              <path id="Path_949" data-name="Path 949" class="cls-21" d="M1034.2,271.554a.391.391,0,0,1,.4-.354" transform="translate(-908.508 -271.2)"/>
              <line id="Line_214" data-name="Line 214" class="cls-20" x2="6.074" transform="translate(126.046 0)"/>
              <path id="Path_950" data-name="Path 950" class="cls-21" d="M916.759,297.9H916" transform="translate(-850.138 -284.385)"/>
              <line id="Line_215" data-name="Line 215" class="cls-20" x1="5.365" transform="translate(60.497 13.515)"/>
              <path id="Path_951" data-name="Path 951" class="cls-21" d="M905,297.9a.391.391,0,0,0-.4.354" transform="translate(-844.508 -284.385)"/>
              <line id="Line_216" data-name="Line 216" class="cls-20" y2="5.821" transform="translate(60.143 13.869)"/>
              <path id="Path_952" data-name="Path 952" class="cls-21" d="M904.7,310.1a.4.4,0,0,0,.4.4" transform="translate(-844.557 -290.41)"/>
              <line id="Line_217" data-name="Line 217" class="cls-20" x2="11.439" transform="translate(60.497 20.095)"/>
              <path id="Path_953" data-name="Path 953" class="cls-21" d="M928,310.5a.373.373,0,0,0,.4-.4" transform="translate(-856.064 -290.41)"/>
              <line id="Line_218" data-name="Line 218" class="cls-20" y1="5.821" transform="translate(72.291 13.869)"/>
              <path id="Path_954" data-name="Path 954" class="cls-21" d="M928.3,298.254a.361.361,0,0,0-.4-.354" transform="translate(-856.014 -284.385)"/>
              <line id="Line_219" data-name="Line 219" class="cls-20" x1="5.315" transform="translate(66.622 13.515)"/>
              <path id="Path_955" data-name="Path 955" class="cls-21" d="M824.005,297.9a.391.391,0,0,0-.4.354" transform="translate(-804.508 -284.385)"/>
              <line id="Line_220" data-name="Line 220" class="cls-20" y2="5.821" transform="translate(19.092 13.869)"/>
              <path id="Path_956" data-name="Path 956" class="cls-21" d="M823.6,310.1a.4.4,0,0,0,.4.4" transform="translate(-804.508 -290.41)"/>
              <line id="Line_221" data-name="Line 221" class="cls-20" x2="37.457" transform="translate(19.497 20.095)"/>
              <path id="Path_957" data-name="Path 957" class="cls-21" d="M898.4,310.5a.373.373,0,0,0,.4-.4" transform="translate(-841.446 -290.41)"/>
              <line id="Line_222" data-name="Line 222" class="cls-20" y1="5.821" transform="translate(57.359 13.869)"/>
              <path id="Path_958" data-name="Path 958" class="cls-21" d="M898.8,298.254a.361.361,0,0,0-.4-.354" transform="translate(-841.446 -284.385)"/>
              <line id="Line_223" data-name="Line 223" class="cls-20" x1="37.457" transform="translate(19.497 13.515)"/>
              <path id="Path_959" data-name="Path 959" class="cls-21" d="M934.6,297.9a.391.391,0,0,0-.4.354" transform="translate(-859.125 -284.385)"/>
              <line id="Line_224" data-name="Line 224" class="cls-20" y2="5.821" transform="translate(75.075 13.869)"/>
              <path id="Path_960" data-name="Path 960" class="cls-21" d="M934.2,310.1a.4.4,0,0,0,.4.4" transform="translate(-859.125 -290.41)"/>
              <line id="Line_225" data-name="Line 225" class="cls-20" x2="37.507" transform="translate(75.48 20.095)"/>
              <path id="Path_961" data-name="Path 961" class="cls-21" d="M1009.1,310.5a.4.4,0,0,0,.4-.4" transform="translate(-896.113 -290.41)"/>
              <line id="Line_226" data-name="Line 226" class="cls-20" y1="5.821" transform="translate(113.392 13.869)"/>
              <path id="Path_962" data-name="Path 962" class="cls-21" d="M1009.5,298.254a.391.391,0,0,0-.4-.354" transform="translate(-896.113 -284.385)"/>
              <line id="Line_227" data-name="Line 227" class="cls-20" x1="37.507" transform="translate(75.48 13.515)"/>
            </g>
            <g id="Group_748" data-name="Group 748" transform="translate(21.411 23.132)">
              <path id="Path_963" data-name="Path 963" class="cls-21" d="M825,304.163a1.064,1.064,0,1,1,1.063,1.012A1.069,1.069,0,0,1,825,304.163" transform="translate(-825 -303.1)"/>
              <path id="Path_964" data-name="Path 964" class="cls-21" d="M882.2,304.163a1.038,1.038,0,0,1,1.063-1.063,1.027,1.027,0,0,1,1.012,1.063,1.015,1.015,0,0,1-1.012,1.012,1,1,0,0,1-1.063-1.012" transform="translate(-853.247 -303.1)"/>
              <path id="Path_965" data-name="Path 965" class="cls-21" d="M1006.375,304.163a1.027,1.027,0,0,0-1.012-1.063,1.038,1.038,0,0,0-1.063,1.063,1.027,1.027,0,0,0,1.063,1.012,1.015,1.015,0,0,0,1.012-1.012" transform="translate(-913.544 -303.1)"/>
              <path id="Path_966" data-name="Path 966" class="cls-21" d="M949.275,304.163a1.038,1.038,0,0,0-1.063-1.063,1.027,1.027,0,0,0-1.012,1.063,1.015,1.015,0,0,0,1.012,1.012,1,1,0,0,0,1.063-1.012" transform="translate(-885.346 -303.1)"/>
            </g>
            <g id="Group_749" data-name="Group 749" transform="translate(5.011 19.69)">
              <path id="Path_967" data-name="Path 967" class="cls-21" d="M792.6,296.7c0-.4.2-.4.4-.4" transform="translate(-792.6 -296.3)"/>
              <line id="Line_228" data-name="Line 228" class="cls-20" x2="5.214" transform="translate(0.405)"/>
              <path id="Path_968" data-name="Path 968" class="cls-21" d="M803.7,296.3a.4.4,0,0,1,.4.4" transform="translate(-798.081 -296.3)"/>
              <line id="Line_229" data-name="Line 229" class="cls-20" y2="2.936" transform="translate(6.023 0.405)"/>
              <path id="Path_969" data-name="Path 969" class="cls-21" d="M804.1,302.9a.391.391,0,0,1-.4.354" transform="translate(-798.081 -299.559)"/>
              <line id="Line_230" data-name="Line 230" class="cls-20" x1="3.999" transform="translate(1.62 3.695)"/>
              <path id="Path_970" data-name="Path 970" class="cls-21" d="M794.22,300.39a1.069,1.069,0,0,1-.911-.658,24.185,24.185,0,0,1-.709-2.632" transform="translate(-792.6 -296.695)"/>
              <path id="Path_971" data-name="Path 971" class="cls-21" d="M1040.5,296.7c0-.4-.2-.4-.4-.4" transform="translate(-914.823 -296.3)"/>
              <line id="Line_231" data-name="Line 231" class="cls-20" x1="5.214" transform="translate(120.063)"/>
              <path id="Path_972" data-name="Path 972" class="cls-21" d="M1029.4,296.3a.373.373,0,0,0-.4.4" transform="translate(-909.342 -296.3)"/>
              <line id="Line_232" data-name="Line 232" class="cls-20" y2="2.936" transform="translate(119.658 0.405)"/>
              <path id="Path_973" data-name="Path 973" class="cls-21" d="M1029,302.9a.361.361,0,0,0,.4.354" transform="translate(-909.342 -299.559)"/>
              <line id="Line_233" data-name="Line 233" class="cls-20" x2="3.999" transform="translate(120.063 3.695)"/>
              <path id="Path_974" data-name="Path 974" class="cls-21" d="M1037.7,300.39a1.069,1.069,0,0,0,.911-.658,24.171,24.171,0,0,0,.709-2.632" transform="translate(-913.638 -296.695)"/>
            </g>
          </g>
          <path id="Path_975" data-name="Path 975" class="cls-27" d="M794.869,257.5c.759,0,1.518.2,1.518,1.468v2.48c0,1.063,0,1.62-.709,1.62H789.2" transform="translate(-785.859 -154.14)"/>
          <rect id="Rectangle_1479" data-name="Rectangle 1479" class="cls-20" width="2.075" height="2.531" transform="translate(3.341 104.878)"/>
          <path id="Path_976" data-name="Path 976" class="cls-21" d="M795.4,262.407a.628.628,0,0,1,.658-.607.585.585,0,0,1,.607.607.628.628,0,0,1-.607.658.751.751,0,0,1-.658-.658" transform="translate(-788.921 -156.264)"/>
          <path id="Path_977" data-name="Path 977" class="cls-27" d="M1031.568,257.5c-.709,0-1.468.2-1.468,1.468v2.48c0,1.063,0,1.62.709,1.62h6.479" transform="translate(-904.823 -154.14)"/>
          <path id="Path_978" data-name="Path 978" class="cls-27" d="M1038.72,263.068V257.5H1033" transform="translate(-906.255 -154.14)"/>
          <rect id="Rectangle_1480" data-name="Rectangle 1480" class="cls-20" width="2.075" height="2.531" transform="translate(130.389 104.878)"/>
          <path id="Path_979" data-name="Path 979" class="cls-21" d="M1036.865,262.407a.628.628,0,0,0-.658-.607.585.585,0,0,0-.607.607.628.628,0,0,0,.607.658.707.707,0,0,0,.658-.658" transform="translate(-907.539 -156.264)"/>
          <g id="Group_753" data-name="Group 753" transform="translate(2.177 141.12)">
            <g id="Group_751" data-name="Group 751">
              <path id="Path_980" data-name="Path 980" class="cls-28" d="M800.263,333.517h-10.68c-1.822,0-2.43-.557-2.683-1.316v8.3a1.815,1.815,0,0,0,1.822,1.822h12.4a1.8,1.8,0,0,0,1.772-1.822v-8.4C802.49,333.214,801.478,333.517,800.263,333.517Z" transform="translate(-786.9 -332.1)"/>
              <line id="Line_234" data-name="Line 234" class="cls-29" y1="5.517" transform="translate(3.594 1.417)"/>
              <line id="Line_235" data-name="Line 235" class="cls-29" y1="5.517" transform="translate(12.3 1.417)"/>
            </g>
            <g id="Group_752" data-name="Group 752" transform="translate(115.305)">
              <path id="Path_981" data-name="Path 981" class="cls-28" d="M1017.484,333.517h10.68c1.822,0,2.43-.557,2.632-1.316v8.3a1.772,1.772,0,0,1-1.772,1.822h-12.5a1.815,1.815,0,0,1-1.822-1.822v-8.4A2.72,2.72,0,0,0,1017.484,333.517Z" transform="translate(-1014.7 -332.1)"/>
              <line id="Line_236" data-name="Line 236" class="cls-29" y1="5.517" transform="translate(12.553 1.417)"/>
              <line id="Line_237" data-name="Line 237" class="cls-29" y1="5.517" transform="translate(3.796 1.417)"/>
            </g>
          </g>
          <g id="Group_754" data-name="Group 754" transform="translate(2.025 124.062)">
            <path id="Path_982" data-name="Path 982" class="cls-30" d="M794.142,306.144c-4,0-4.961-.607-6.277-3.746a23.284,23.284,0,0,1-1.265-4v15.894c0,1.367.051,2.581,2.784,2.581h10.68c1.721,0,2.834-.557,2.834-2.683v-8.048Z" transform="translate(-786.6 -298.4)"/>
            <path id="Path_983" data-name="Path 983" class="cls-30" d="M1023.407,306.144c4,0,4.91-.607,6.276-3.746a23.263,23.263,0,0,0,1.265-4v15.894c0,1.367-.05,2.581-2.784,2.581h-10.68c-1.721,0-2.885-.557-2.885-2.683v-8.048Z" transform="translate(-899.193 -298.4)"/>
          </g>
          <path id="Path_984" data-name="Path 984" class="cls-30" d="M868.4,313.7H818.9v5.112h99.007V313.7Z" transform="translate(-800.526 -181.893)"/>
          <line id="Line_238" data-name="Line 238" class="cls-20" x2="99.007" transform="translate(18.374 135.907)"/>
          <g id="Group_755" data-name="Group 755" transform="translate(25.966 136.868)">
            <path id="Path_985" data-name="Path 985" class="cls-30" d="M840.683,326.686a1.469,1.469,0,0,0,1.468-1.468,1.513,1.513,0,0,0-1.468-1.518h-5.315c-.81,0-1.468.4-1.468.911s.607.658,1.468.861A42.113,42.113,0,0,0,840.683,326.686Z" transform="translate(-833.9 -323.7)"/>
            <path id="Path_986" data-name="Path 986" class="cls-30" d="M984.768,326.686a1.469,1.469,0,0,1-1.468-1.468,1.513,1.513,0,0,1,1.468-1.518h5.315c.81,0,1.468.4,1.468.911s-.607.658-1.468.861A42.121,42.121,0,0,1,984.768,326.686Z" transform="translate(-907.678 -323.7)"/>
          </g>
          <path id="Path_987" data-name="Path 987" class="cls-21" d="M918.172,63.815c-.506-1.67-2.683-3.594-5.77-3.7-7.188-.354-42.67-1.62-52.591-1.62-9.87,0-45.353,1.265-52.591,1.62-2.986.1-5.214,2.025-5.72,3.7" transform="translate(-791.933 -55.868)"/>
          <line id="Line_239" data-name="Line 239" class="cls-20" y2="4.049" transform="translate(26.068 3.796)"/>
          <line id="Line_240" data-name="Line 240" class="cls-20" y2="3.948" transform="translate(112.673 3.898)"/>
          <line id="Line_241" data-name="Line 241" class="cls-20" x1="0.051" y1="3.948" transform="translate(23.081 3.898)"/>
          <line id="Line_242" data-name="Line 242" class="cls-20" y2="4.049" transform="translate(109.738 3.796)"/>
          <path id="Path_988" data-name="Path 988" class="cls-21" d="M917.77,62.709c-4.859-.2-36.647-.709-41.86-.709-5.163,0-36.95.506-41.81.709" transform="translate(-808.032 -57.596)"/>
          <path id="Path_989" data-name="Path 989" class="cls-21" d="M917.77,66.409c-4.707-.506-37.558-.709-41.86-.709-4.252,0-37.153.2-41.81.709" transform="translate(-808.032 -59.423)"/>
        </g>
      </g>
      <g id="Group_761" data-name="Group 761" transform="translate(54.265 109.044)">
        <g id="Group_760" data-name="Group 760">
          <line id="Line_243" data-name="Line 243" class="cls-17" x2="79.772" transform="translate(3.594 3.796)"/>
          <g id="Group_758" data-name="Group 758">
            <circle id="Ellipse_75" data-name="Ellipse 75" class="cls-18" cx="3.796" cy="3.796" r="3.796"/>
          </g>
          <g id="Group_759" data-name="Group 759" transform="translate(79.367)">
            <circle id="Ellipse_76" data-name="Ellipse 76" class="cls-18" cx="3.796" cy="3.796" r="3.796"/>
          </g>
        </g>
      </g>
      <g id="Group_765" data-name="Group 765" transform="translate(41.004 166.292)">
        <g id="Group_764" data-name="Group 764">
          <line id="Line_244" data-name="Line 244" class="cls-17" x2="108.32" transform="translate(3.594 3.746)"/>
          <g id="Group_762" data-name="Group 762">
            <path id="Path_990" data-name="Path 990" class="cls-18" d="M808.3,384.093a3.8,3.8,0,1,1,3.8-3.8A3.791,3.791,0,0,1,808.3,384.093Z" transform="translate(-804.5 -376.5)"/>
          </g>
          <g id="Group_763" data-name="Group 763" transform="translate(107.966)">
            <path id="Path_991" data-name="Path 991" class="cls-18" d="M1021.6,384.093a3.8,3.8,0,1,0-3.8-3.8A3.791,3.791,0,0,0,1021.6,384.093Z" transform="translate(-1017.8 -376.5)"/>
          </g>
        </g>
      </g>
      <g id="Group_767" data-name="Group 767" transform="translate(64.124 148.374)">
        <g id="Group_766" data-name="Group 766">
          <text id="Ancho:_1_60m" data-name="Ancho: 1,60m" class="cls-19" transform="translate(0 10)"><tspan x="0" y="0">Ancho: 1,60m</tspan></text>
        </g>
      </g>
      <g id="Group_769" data-name="Group 769" transform="translate(54.538 91.021)">
        <g id="Group_768" data-name="Group 768">
          <text id="Paso_rueda:_1_30m" data-name="Paso rueda: 1,30m" class="cls-19" transform="translate(0 10)"><tspan x="0" y="0">Paso rueda: 1,30m</tspan></text>
        </g>
      </g>
    </g>
  </g>
</svg>
