<?xml version="1.0" encoding="utf-8"?>
<!-- Generator: Adobe Illustrator 21.1.0, SVG Export Plug-In . SVG Version: 6.00 Build 0)  -->
<svg version="1.1" id="Layer_1" xmlns="http://www.w3.org/2000/svg" xmlns:xlink="http://www.w3.org/1999/xlink" x="0px" y="0px"
	 viewBox="0 0 56.3 55.5" style="enable-background:new 0 0 56.3 55.5;" xml:space="preserve">
<style type="text/css">
	.st0{fill:#FFFFFF;}
	.st1{fill:#C8D41B;}
</style>
<g id="Group_12" transform="translate(49.855 40.754)">
	<g transform="matrix(1, 0, 0, 1, -49.86, -40.75)">
		<path id="Path_149-2" class="st0" d="M15,6h20.3c5,0,9,4,9,9v19.5c0,5-4,9-9,9H15c-5,0-9-4-9-9V15C6,10,10,6,15,6z"/>
	</g>
	<g id="Group_6" transform="translate(5.584 574.974)">
		<path id="Path_15" class="st1" d="M-22.6-599.2c-3-1.5-8.1-1.5-8.1-1.5s-5.1,0-8.1,1.5c-3,1.5-5.1,2.5-5.1,3.5c0,0,0,3,1.5,3
			c1.7-0.2,3.4-0.5,5.1-1c0.4-0.6,0.6-1.3,0.5-2c0-1.5,3.5-2,6.1-2s6.1,0.5,6.1,2c-0.1,0.7,0.1,1.4,0.5,2c1.7,0.5,3.3,0.8,5.1,1
			c1.5,0,1.5-3,1.5-3C-17.5-596.7-19.6-597.7-22.6-599.2z"/>
		<path id="Path_16" class="st1" d="M-30.7-593.7c0,0-6.6,0-9.1,3.5c-1.5,1.9-2.3,4.2-2.5,6.6c0.3,1.4,1.6,2.5,3,2.5h17.2
			c1.5,0,2.7-1.1,3-2.5c-0.2-2.4-1.1-4.7-2.5-6.6C-24.1-593.7-30.7-593.7-30.7-593.7z M-30.7-584c-2,0-3.5-1.6-3.5-3.5
			c0-2,1.6-3.5,3.5-3.5s3.5,1.6,3.5,3.5C-27.1-585.6-28.7-584.1-30.7-584C-30.7-584-30.7-584-30.7-584z"/>
	</g>
</g>
</svg>
