<svg xmlns="http://www.w3.org/2000/svg" viewBox="1427 625.839 31.284 17.664">
  <defs>
    <style>
      .cls-1 {
        fill: #c8d41b;
      }
    </style>
  </defs>
  <g id="Group_179" data-name="Group 179" transform="translate(1427 625.839)">
    <g id="Group_132" data-name="Group 132" transform="translate(4.999 12.593)">
      <path id="Path_111" data-name="Path 111" class="cls-1" d="M84.3,214.635a2.535,2.535,0,1,0,2.535-2.535A2.538,2.538,0,0,0,84.3,214.635Zm1.015,0a1.52,1.52,0,1,1,1.52,1.52A1.523,1.523,0,0,1,85.315,214.635Z" transform="translate(-84.3 -212.1)"/>
    </g>
    <g id="Group_133" data-name="Group 133" transform="translate(21.214 12.593)">
      <path id="Path_112" data-name="Path 112" class="cls-1" d="M357.4,214.635a2.535,2.535,0,1,0,2.535-2.535A2.538,2.538,0,0,0,357.4,214.635Zm1.009,0a1.52,1.52,0,1,1,1.52,1.52A1.523,1.523,0,0,1,358.409,214.635Z" transform="translate(-357.4 -212.1)"/>
    </g>
    <g id="Group_134" data-name="Group 134" transform="translate(0)">
      <path id="Path_113" data-name="Path 113" class="cls-1" d="M29.924,16.085H27.9a.953.953,0,0,1-.95-.95,3.1,3.1,0,1,0-6.2,0,.953.953,0,0,1-.95.95H11.684a.953.953,0,0,1-.95-.95,3.1,3.1,0,0,0-6.2-.006.953.953,0,0,1-.95.95H1.555a.953.953,0,0,1-.95-.95v-.617l-.226-.226A.953.953,0,0,1,.1,13.615V12.6a.967.967,0,0,1,.279-.677L.6,11.7V2.969A13.551,13.551,0,0,1,.759,1.532C.89.665,1.032,0,1.555,0H16.749a24.017,24.017,0,0,1,4.067.778,18.481,18.481,0,0,1,3.693,1.253.966.966,0,0,1,.623.392l3.473,4.964a6.292,6.292,0,0,1,1.615,1.971l.018.042.4,1.057a6.962,6.962,0,0,1,.214,1.217l.255.255a.953.953,0,0,1,.279.671v1.015a.967.967,0,0,1-.279.677l-.226.226v.617A.954.954,0,0,1,29.924,16.085Zm-6.08-4.946a4,4,0,0,1,3.99,3.99.059.059,0,0,0,.059.059h2.025a.059.059,0,0,0,.059-.059v-.986l.487-.487a.064.064,0,0,0,.018-.042V12.6a.054.054,0,0,0-.018-.042l-.487-.487-.012-.166a6.675,6.675,0,0,0-.2-1.193L29.4,9.743a5.349,5.349,0,0,0-1.425-1.7L27.929,8l-3.438-4.91-.03.042-.4-.309C23.351,2.244,17.936.891,16.749.891H1.792a12.436,12.436,0,0,0-.3,2.078v9.1l-.487.487a.064.064,0,0,0-.018.042v1.015a.054.054,0,0,0,.018.042l.487.487v.986a.059.059,0,0,0,.059.059H3.579a.059.059,0,0,0,.059-.059,3.99,3.99,0,1,1,7.98,0,.059.059,0,0,0,.059.059h8.1a.059.059,0,0,0,.059-.059A4.015,4.015,0,0,1,23.844,11.139ZM25.31,8.312H19.735a.953.953,0,0,1-.95-.95V4.322a.953.953,0,0,1,.95-.95H23.28a.946.946,0,0,1,.79.422l2.025,3.04a.952.952,0,0,1,.048.98A.932.932,0,0,1,25.31,8.312ZM19.735,4.257a.059.059,0,0,0-.059.059V7.362a.059.059,0,0,0,.059.059H25.31a.062.062,0,0,0,.053-.03.054.054,0,0,0-.006-.065l-2.025-3.04a.062.062,0,0,0-.053-.03Z" transform="translate(-0.1)"/>
    </g>
  </g>
</svg>
