<svg xmlns="http://www.w3.org/2000/svg" viewBox="1518 622.836 36.662 20.851">
  <defs>
    <style>
      .cls-1 {
        fill: #c8d41b;
      }
    </style>
  </defs>
  <g id="Group_180" data-name="Group 180" transform="translate(1518 622.836)">
    <g id="Group_136" data-name="Group 136" transform="translate(27.16 15.745)">
      <path id="Path_114" data-name="Path 114" class="cls-1" d="M454.2,265.853a2.553,2.553,0,1,0,2.553-2.553A2.556,2.556,0,0,0,454.2,265.853Zm1.023,0a1.531,1.531,0,1,1,1.531,1.531A1.534,1.534,0,0,1,455.223,265.853Z" transform="translate(-454.2 -263.3)"/>
    </g>
    <g id="Group_137" data-name="Group 137" transform="translate(23.596 2.655)">
      <path id="Path_115" data-name="Path 115" class="cls-1" d="M394.6,44.4h8.246a1.558,1.558,0,0,1,1.262.646l3.3,4.61a1.357,1.357,0,0,1,.257.8v9.017a.994.994,0,0,1-.993.993h-1.836c.012-.138.024-.275.024-.419a4.192,4.192,0,0,0-.03-.478h1.842a.094.094,0,0,0,.1-.1V50.451a.442.442,0,0,0-.09-.269l-3.307-4.61a.649.649,0,0,0-.532-.275H395.5V59.565h1.118a4.192,4.192,0,0,0-.03.478,3.213,3.213,0,0,0,.024.419h-2V44.4Z" transform="translate(-394.6 -44.4)"/>
    </g>
    <g id="Group_138" data-name="Group 138" transform="translate(25.611 14.166)">
      <path id="Path_116" data-name="Path 116" class="cls-1" d="M432.4,237.869a3.162,3.162,0,0,0-3.127,2.685H428.3a4.136,4.136,0,0,1,8.216,0h-.975A3.193,3.193,0,0,0,432.4,237.869Z" transform="translate(-428.3 -236.9)"/>
    </g>
    <g id="Group_139" data-name="Group 139" transform="translate(25.569 17.82)">
      <path id="Path_117" data-name="Path 117" class="cls-1" d="M427.636,298h.975a3.16,3.16,0,0,0-.036.478v.006a.408.408,0,0,1-.407.413h-.544c-.012-.138-.024-.275-.024-.419C427.606,298.317,427.618,298.155,427.636,298Z" transform="translate(-427.6 -298)"/>
    </g>
    <g id="Group_140" data-name="Group 140" transform="translate(32.841 17.82)">
      <path id="Path_118" data-name="Path 118" class="cls-1" d="M549.236,298.478A3.168,3.168,0,0,0,549.2,298h.975a4.192,4.192,0,0,1,.03.478,3.213,3.213,0,0,1-.024.419h-.544a.409.409,0,0,1-.4-.419Z" transform="translate(-549.2 -298)"/>
    </g>
    <g id="Group_141" data-name="Group 141" transform="translate(27.847 4.586)">
      <path id="Path_119" data-name="Path 119" class="cls-1" d="M474.508,81.759h-8.025a.786.786,0,0,1-.783-.783V77.483a.786.786,0,0,1,.783-.783h5.382l2.38,3.331a1.357,1.357,0,0,1,.257.8v.933Zm-7.905-.9h7.008V80.82a.441.441,0,0,0-.09-.269L471.4,77.6H466.6v3.265Z" transform="translate(-465.7 -76.7)"/>
    </g>
    <g id="Group_142" data-name="Group 142" transform="translate(4.317 15.745)">
      <path id="Path_120" data-name="Path 120" class="cls-1" d="M72.2,265.853a2.553,2.553,0,1,0,2.553-2.553A2.556,2.556,0,0,0,72.2,265.853Zm1.023,0a1.531,1.531,0,1,1,1.531,1.531A1.534,1.534,0,0,1,73.223,265.853Z" transform="translate(-72.2 -263.3)"/>
    </g>
    <g id="Group_143" data-name="Group 143">
      <path id="Path_121" data-name="Path 121" class="cls-1" d="M1.011,0H23.632a.865.865,0,0,1,.861.861V18.716H10.979c.012-.138.024-.275.024-.419a4.193,4.193,0,0,0-.03-.478H23.59V.9H1.011A.114.114,0,0,0,.9,1.011v16.7a.114.114,0,0,0,.114.114H2.763a4.193,4.193,0,0,0-.03.478,3.214,3.214,0,0,0,.024.419H1.011A1.018,1.018,0,0,1,0,17.706V1.011A1.013,1.013,0,0,1,1.011,0Z"/>
    </g>
    <g id="Group_144" data-name="Group 144" transform="translate(2.763 14.166)">
      <path id="Path_122" data-name="Path 122" class="cls-1" d="M50.308,237.869a3.162,3.162,0,0,0-3.127,2.685H46.2a4.136,4.136,0,0,1,8.216,0h-.975A3.182,3.182,0,0,0,50.308,237.869Z" transform="translate(-46.2 -236.9)"/>
    </g>
    <g id="Group_145" data-name="Group 145" transform="translate(9.998 17.82)">
      <path id="Path_123" data-name="Path 123" class="cls-1" d="M167.236,298.478A3.16,3.16,0,0,0,167.2,298h.975a4.192,4.192,0,0,1,.03.478,3.218,3.218,0,0,1-.024.419h-.544a.409.409,0,0,1-.4-.419Z" transform="translate(-167.2 -298)"/>
    </g>
    <g id="Group_146" data-name="Group 146" transform="translate(2.727 17.82)">
      <path id="Path_124" data-name="Path 124" class="cls-1" d="M45.636,298h.975a3.162,3.162,0,0,0-.036.478v.006a.408.408,0,0,1-.407.413h-.544c-.012-.138-.024-.275-.024-.419C45.606,298.317,45.618,298.155,45.636,298Z" transform="translate(-45.6 -298)"/>
    </g>
  </g>
</svg>
