<svg xmlns="http://www.w3.org/2000/svg" viewBox="511 445.423 55.083 27.547">
  <defs>
    <style>
      .cls-1 {
        fill: #6d740d;
      }
    </style>
  </defs>
  <g id="Group_211" data-name="Group 211" transform="translate(478.062 -18.47)">
    <g id="Group_204" data-name="Group 204" transform="translate(32.938 463.893)">
      <g id="Group_124" data-name="Group 124" transform="translate(8.802 18.619)">
        <path id="Path_108" data-name="Path 108" class="cls-1" d="M84.3,182.564a4.464,4.464,0,1,0,4.464-4.464A4.468,4.468,0,0,0,84.3,182.564Zm1.788,0a2.676,2.676,0,1,1,2.676,2.676A2.681,2.681,0,0,1,86.088,182.564Z" transform="translate(-84.3 -178.1)"/>
      </g>
      <g id="Group_125" data-name="Group 125" transform="translate(37.353 18.619)">
        <path id="Path_109" data-name="Path 109" class="cls-1" d="M357.4,182.564a4.464,4.464,0,1,0,4.464-4.464A4.468,4.468,0,0,0,357.4,182.564Zm1.777,0a2.676,2.676,0,1,1,2.676,2.676A2.681,2.681,0,0,1,359.177,182.564Z" transform="translate(-357.4 -178.1)"/>
      </g>
      <g id="Group_126" data-name="Group 126" transform="translate(0)">
        <path id="Path_110" data-name="Path 110" class="cls-1" d="M52.611,24.766H49.047a1.678,1.678,0,0,1-1.673-1.673,5.457,5.457,0,0,0-10.914,0,1.678,1.678,0,0,1-1.673,1.673H20.5a1.678,1.678,0,0,1-1.673-1.673A5.462,5.462,0,0,0,7.9,23.083a1.678,1.678,0,0,1-1.673,1.673H2.661A1.678,1.678,0,0,1,.989,23.083V22l-.4-.4A1.679,1.679,0,0,1,.1,20.417V18.629a1.7,1.7,0,0,1,.491-1.192l.4-.4V1.673A1.678,1.678,0,0,1,2.661,0H42.805a1.676,1.676,0,0,1,1.37.721l6.116,8.74a11.079,11.079,0,0,1,2.844,3.471l.031.073.7,1.861a12.26,12.26,0,0,1,.376,2.143l.45.45a1.679,1.679,0,0,1,.491,1.181v1.788a1.7,1.7,0,0,1-.491,1.192l-.4.4V23.1A1.678,1.678,0,0,1,52.611,24.766ZM41.906,16.058a7.034,7.034,0,0,1,7.025,7.025.1.1,0,0,0,.1.1H52.6a.1.1,0,0,0,.1-.1V21.347l.857-.857a.113.113,0,0,0,.031-.073V18.629a.1.1,0,0,0-.031-.073l-.857-.857-.021-.293a11.753,11.753,0,0,0-.345-2.1l-.648-1.7a9.419,9.419,0,0,0-2.509-3l-.084-.063L42.868,1.631a.1.1,0,0,0-.084-.042H2.64a.1.1,0,0,0-.1.1V17.709l-.857.857a.113.113,0,0,0-.031.073v1.788a.1.1,0,0,0,.031.073l.857.857v1.735a.1.1,0,0,0,.1.1H6.205a.1.1,0,0,0,.1-.1,7.025,7.025,0,0,1,14.05,0,.1.1,0,0,0,.1.1h14.27a.1.1,0,0,0,.1-.1A7.106,7.106,0,0,1,41.906,16.058Zm2.582-4.976H34.672A1.678,1.678,0,0,1,33,9.409V4.056a1.678,1.678,0,0,1,1.673-1.673h6.241a1.665,1.665,0,0,1,1.39.742l3.575,5.353a1.671,1.671,0,0,1-1.39,2.6Zm-9.817-7.14a.1.1,0,0,0-.1.1V9.409a.1.1,0,0,0,.1.1h9.816a.11.11,0,0,0,.094-.052.1.1,0,0,0-.01-.115L41.007,3.994a.11.11,0,0,0-.094-.052Z" transform="translate(-0.1)"/>
      </g>
    </g>
  </g>
</svg>
