<?xml version="1.0" encoding="utf-8"?>
<!-- Generator: Adobe Illustrator 21.1.0, SVG Export Plug-In . SVG Version: 6.00 Build 0)  -->
<svg version="1.1" id="Layer_1" xmlns="http://www.w3.org/2000/svg" xmlns:xlink="http://www.w3.org/1999/xlink" x="0px" y="0px"
	 viewBox="0 0 18 69.6" style="enable-background:new 0 0 18 69.6;" xml:space="preserve">
<style type="text/css">
	.st0{fill:#C8D41B;stroke:#C8D41B;stroke-width:0.15;}
	.st1{fill:none;stroke:#C8D41B;stroke-width:1.5;}
	.st2{fill:#C8D41B;}
</style>
<g id="Group_560" transform="translate(3970 -1412)">
	<path id="Path_455" class="st0" d="M-3962,1466.4l-7.5,2.8v9.4l7.5,2.8l7.5-2.8v-9.4L-3962,1466.4z M-3956.2,1469.5l-2.3,0.8
		l-5.8-2.2l2.3-0.9L-3956.2,1469.5z M-3962,1471.7l-5.8-2.2l2.3-0.9l5.8,2.2L-3962,1471.7z M-3968.6,1470.2l6.2,2.3v7.9l-6.2-2.3
		V1470.2z M-3961.6,1480.4v-7.9l6.2-2.3v7.9L-3961.6,1480.4z"/>
	<g id="Ellipse_26" transform="translate(23 311)">
		<circle class="st1" cx="-3984" cy="1110" r="8.2"/>
	</g>
	<circle id="Ellipse_27" class="st2" cx="-3961" cy="1437.4" r="2.4"/>
	<circle id="Ellipse_28" class="st2" cx="-3961" cy="1448.4" r="2.4"/>
	<circle id="Ellipse_29" class="st2" cx="-3961" cy="1458.4" r="2.4"/>
</g>
</svg>
