<svg id="Symbol_8_17" data-name="Symbol 8 – 17" xmlns="http://www.w3.org/2000/svg" viewBox="276.962 28.257 27.322 20.491">
  <defs>
    <style>
      .cls-1 {
        fill: #c8d41b;
      }
    </style>
  </defs>
  <g id="Group_6" data-name="Group 6" transform="translate(276.962 28.257)">
    <path id="Path_15" data-name="Path 15" class="cls-1" d="M22.067,1.576C18.915,0,13.661,0,13.661,0S8.407,0,5.254,1.576,0,4.2,0,5.254c0,0,0,3.153,1.576,3.153A29.573,29.573,0,0,0,6.83,7.356a3.071,3.071,0,0,0,.525-2.1c0-1.576,3.678-2.1,6.305-2.1s6.3.525,6.3,2.1a3.071,3.071,0,0,0,.525,2.1,29.573,29.573,0,0,0,5.254,1.051c1.576,0,1.576-3.153,1.576-3.153C27.322,4.2,25.22,3.152,22.067,1.576Z" transform="translate(0)"/>
    <path id="Path_16" data-name="Path 16" class="cls-1" d="M15.085,14s-6.83,0-9.457,3.678A12.919,12.919,0,0,0,3,24.508a3.287,3.287,0,0,0,3.153,2.627H24.017a3.287,3.287,0,0,0,3.153-2.627,12.919,12.919,0,0,0-2.627-6.83C21.915,14,15.085,14,15.085,14Zm0,9.983a3.678,3.678,0,1,1,3.678-3.678A3.655,3.655,0,0,1,15.085,23.983Z" transform="translate(-1.424 -6.644)"/>
  </g>
</svg>
