<svg xmlns="http://www.w3.org/2000/svg" viewBox="1332 610.463 32.007 16.006">
  <defs>
    <style>
      .cls-1 {
        fill: #c8d41b;
      }
    </style>
  </defs>
  <g id="Group_204" data-name="Group 204" transform="translate(1332 610.463)">
    <g id="Group_124" data-name="Group 124" transform="translate(5.115 10.819)">
      <path id="Path_108" data-name="Path 108" class="cls-1" d="M84.3,180.694a2.594,2.594,0,1,0,2.594-2.594A2.6,2.6,0,0,0,84.3,180.694Zm1.039,0a1.555,1.555,0,1,1,1.555,1.555A1.558,1.558,0,0,1,85.339,180.694Z" transform="translate(-84.3 -178.1)"/>
    </g>
    <g id="Group_125" data-name="Group 125" transform="translate(21.704 10.819)">
      <path id="Path_109" data-name="Path 109" class="cls-1" d="M357.4,180.694a2.594,2.594,0,1,0,2.594-2.594A2.6,2.6,0,0,0,357.4,180.694Zm1.033,0a1.555,1.555,0,1,1,1.555,1.555A1.558,1.558,0,0,1,358.433,180.694Z" transform="translate(-357.4 -178.1)"/>
    </g>
    <g id="Group_126" data-name="Group 126" transform="translate(0)">
      <path id="Path_110" data-name="Path 110" class="cls-1" d="M30.612,14.391H28.541a.975.975,0,0,1-.972-.972,3.171,3.171,0,1,0-6.342,0,.975.975,0,0,1-.972.972h-8.3a.975.975,0,0,1-.972-.972,3.174,3.174,0,0,0-6.348-.006.975.975,0,0,1-.972.972H1.588a.975.975,0,0,1-.972-.972v-.632L.386,12.55A.976.976,0,0,1,.1,11.864V10.825a.99.99,0,0,1,.286-.692L.616,9.9V.972A.975.975,0,0,1,1.588,0H24.915a.974.974,0,0,1,.8.419L29.264,5.5a6.437,6.437,0,0,1,1.652,2.017l.018.043.407,1.081a7.124,7.124,0,0,1,.219,1.245l.261.261a.976.976,0,0,1,.286.686V11.87a.99.99,0,0,1-.286.692l-.231.231v.632A.975.975,0,0,1,30.612,14.391Zm-6.22-5.06a4.087,4.087,0,0,1,4.082,4.082.061.061,0,0,0,.061.061h2.071a.061.061,0,0,0,.061-.061V12.4l.5-.5a.066.066,0,0,0,.018-.043V10.825a.055.055,0,0,0-.018-.043l-.5-.5-.012-.17a6.829,6.829,0,0,0-.2-1.221l-.377-.99A5.473,5.473,0,0,0,28.62,6.16l-.049-.036L24.951.948A.055.055,0,0,0,24.9.923H1.576a.061.061,0,0,0-.061.061V10.29l-.5.5A.066.066,0,0,0,1,10.831V11.87a.055.055,0,0,0,.018.043l.5.5v1.008a.061.061,0,0,0,.061.061H3.648a.061.061,0,0,0,.061-.061,4.082,4.082,0,1,1,8.164,0,.061.061,0,0,0,.061.061h8.292a.061.061,0,0,0,.061-.061A4.129,4.129,0,0,1,24.392,9.331Zm1.5-2.891h-5.7a.975.975,0,0,1-.972-.972V2.357a.975.975,0,0,1,.972-.972h3.627a.967.967,0,0,1,.808.431L26.7,4.926a.971.971,0,0,1-.808,1.513Zm-5.7-4.149a.061.061,0,0,0-.061.061V5.467a.061.061,0,0,0,.061.061h5.7a.064.064,0,0,0,.055-.03.056.056,0,0,0-.006-.067L23.87,2.32a.064.064,0,0,0-.055-.03Z" transform="translate(-0.1)"/>
    </g>
  </g>
</svg>
