<svg xmlns="http://www.w3.org/2000/svg" viewBox="-407.117 28.055 127.44 24.808">
  <defs>
    <style>
      .cls-1 {
        fill: #333;
      }

      .cls-2 {
        fill: #c9d139;
      }
    </style>
  </defs>
  <g id="Group_279" data-name="Group 279" transform="translate(-421.323 21.426)">
    <g id="Group_257" data-name="Group 257" transform="translate(14.205 6.629)">
      <path id="Path_169" data-name="Path 169" class="cls-1" d="M437.06,44.5a8.932,8.932,0,1,0,5.34,16.068,3.031,3.031,0,0,0,2.969,1.82.566.566,0,0,0,.551-.6V53.456A8.937,8.937,0,0,0,437.06,44.5Zm0,14.2a5.244,5.244,0,1,1,5.2-5.244A5.217,5.217,0,0,1,437.06,58.7Z" transform="translate(-372.071 -43.925)"/>
      <path id="Path_170" data-name="Path 170" class="cls-1" d="M376.654,46.436h2.586a3.043,3.043,0,0,0,2.083-3.185.566.566,0,0,0-.6-.551h-4.167a10.691,10.691,0,0,0-6.058,2.059,9.134,9.134,0,0,0-3.257,6.226c-.024.144-.024,1.461,0,1.58a9.19,9.19,0,0,0,3.257,6.274,8.73,8.73,0,0,0,5.531,2.059h4.693a.566.566,0,0,0,.6-.551,3.1,3.1,0,0,0-2.083-3.185h-2.61c-3.041-.072-5.723-2.562-5.723-5.364A5.855,5.855,0,0,1,376.654,46.436Z" transform="translate(-325.697 -42.556)"/>
      <path id="Path_171" data-name="Path 171" class="cls-1" d="M667.134,47.11a8.725,8.725,0,0,0-6.274-2.61h0A8.871,8.871,0,0,0,652,53.432a8.922,8.922,0,0,0,8.86,8.956,8.871,8.871,0,0,0,8.86-8.932A9.069,9.069,0,0,0,667.134,47.11Zm-2.49,10.153a5.23,5.23,0,0,1-3.783,1.58,5.418,5.418,0,0,1-3.783-9.243,5.319,5.319,0,0,1,7.567,0,5.439,5.439,0,0,1,1.58,3.831A5.5,5.5,0,0,1,664.643,57.263Z" transform="translate(-542.28 -43.925)"/>
      <path id="Path_172" data-name="Path 172" class="cls-1" d="M586.12,50.481h0a9.044,9.044,0,0,0-2.586-5.771,8.725,8.725,0,0,0-6.274-2.61,8.871,8.871,0,0,0-8.86,8.932,8.922,8.922,0,0,0,8.86,8.956,8.72,8.72,0,0,0,5.124-1.652c-.335,2.706-3.4,4.789-6.034,4.837h-1.628a3.043,3.043,0,0,0-2.083,3.185.566.566,0,0,0,.6.551h3.209c4.885-.1,9.315-3.9,9.674-8.309a2.092,2.092,0,0,0,.048-.383V51.008Zm-5.053,4.382a5.23,5.23,0,0,1-3.783,1.58A5.419,5.419,0,0,1,573.5,47.2a5.319,5.319,0,0,1,7.567,0,5.438,5.438,0,0,1,1.58,3.831A5.542,5.542,0,0,1,581.067,54.863Z" transform="translate(-478.699 -42.1)"/>
      <path id="Path_173" data-name="Path 173" class="cls-1" d="M528.012,42.1h-3.257a9.137,9.137,0,0,0-8.908,8.429,2.1,2.1,0,0,0-.048.383v9.052a.573.573,0,0,0,.551.623c2.634,0,3.209-1.58,3.209-2.2V51.319a5.446,5.446,0,0,1,5.268-5.436h1.652a3.114,3.114,0,0,0,2.131-3.233A.566.566,0,0,0,528.012,42.1Z" transform="translate(-438.694 -42.1)"/>
      <path id="Path_174" data-name="Path 174" class="cls-2" d="M213.675,45.1a3.828,3.828,0,0,0-1.269.192,2.851,2.851,0,0,0-1.82,1.82v9.171a2.854,2.854,0,0,1-.623,1.724,2.1,2.1,0,0,1-1.724.766,2.215,2.215,0,0,1-1.748-.766,2.858,2.858,0,0,1-.647-1.868V51.422A1.8,1.8,0,0,0,204,49.578a1.737,1.737,0,0,0-1.269.527,1.789,1.789,0,0,0-.551,1.317v4.717a2.88,2.88,0,0,1-.623,1.868,2.111,2.111,0,0,1-1.748.766,2.151,2.151,0,0,1-1.7-.766,2.747,2.747,0,0,1-.647-1.748V47.111a2.851,2.851,0,0,0-1.82-1.82,4.089,4.089,0,0,0-1.293-.192.566.566,0,0,0-.551.6v10.44a6.713,6.713,0,0,0,1.7,4.5,5.494,5.494,0,0,0,1.916,1.365c.024,0,.048.024.072.024a5.873,5.873,0,0,0,2.347.479,5.737,5.737,0,0,0,2.371-.455,5.142,5.142,0,0,0,1.82-1.317,6.612,6.612,0,0,0,1.868,1.269,5.706,5.706,0,0,0,2.347.479,5.788,5.788,0,0,0,2.347-.479c.024,0,.048-.024.072-.024a5.98,5.98,0,0,0,1.892-1.365,6.294,6.294,0,0,0,1.245-2.035,6.945,6.945,0,0,0,.455-2.466V45.675A.592.592,0,0,0,213.675,45.1Z" transform="translate(-193.8 -44.382)"/>
      <path id="Path_175" data-name="Path 175" class="cls-2" d="M303.509,57.769a3.174,3.174,0,0,0-2.107-1.413,2.242,2.242,0,0,0-1.461.216,9.254,9.254,0,0,1-2.155,1.173c-.024,0-.12.024-.12.048a5.815,5.815,0,0,1-6.777-2.634c-.1-.168-.168-.311-.263-.479l.718-.168,6.944-1.58,3.328-.766.982-.216h0a2.951,2.951,0,0,0,1.916-3.041,1.175,1.175,0,0,0-.072-.311,9.174,9.174,0,0,0-7.495-5.579,9.265,9.265,0,0,0-9.794,12.093,9.166,9.166,0,0,0,2.945,4.262,9,9,0,0,0,4.31,1.94,9.591,9.591,0,0,0,3.879-.168,15.185,15.185,0,0,0,3.257-1.556,13.506,13.506,0,0,0,1.868-1.341l.024-.024h0A.425.425,0,0,0,303.509,57.769Zm-13.362-6.561c.024-.1.048-.216.072-.311a5.843,5.843,0,0,1,6.681-4.478,5.911,5.911,0,0,1,3.712,2.251l.144.216L290.148,51.3Z" transform="translate(-264.454 -42.755)"/>
    </g>
  </g>
</svg>
