<svg xmlns="http://www.w3.org/2000/svg" viewBox="2232.421 -211.383 172.057 40.016">
  <defs>
    <style>
      .cls-1, .cls-2 {
        fill: #9ba223;
      }

      .cls-2, .cls-7, .cls-8 {
        stroke: #333;
        stroke-linejoin: round;
        stroke-miterlimit: 10;
        stroke-width: 0.9px;
      }

      .cls-3 {
        fill: #333;
      }

      .cls-4 {
        fill: #fff;
      }

      .cls-5, .cls-8 {
        fill: #c9d139;
      }

      .cls-6, .cls-7 {
        fill: #6d740d;
      }
    </style>
  </defs>
  <g id="Group_366" data-name="Group 366" transform="translate(2232.421 -211.333)">
    <path id="Path_1" data-name="Path 1" class="cls-1" d="M0,51.6V69.8a2.129,2.129,0,0,0,1.01,1.815l14.382,8.938V59.569l.15-.1" transform="translate(0 -44.602)"/>
    <path id="Path_2" data-name="Path 2" class="cls-2" d="M112.8,112.616V109.4l.15-.1" transform="translate(-97.408 -94.429)"/>
    <path id="Path_3" data-name="Path 3" class="cls-1" d="M34.143,103.147l-.027.014L21.534,96.938A2.18,2.18,0,0,0,18.3,98.726v14.4a2.125,2.125,0,0,0,1,1.8L34.1,123.506l.287-.2" transform="translate(-15.803 -83.541)"/>
    <g id="Group_1" data-name="Group 1" transform="translate(1.678 12.602)">
      <path id="Path_4" data-name="Path 4" class="cls-3" d="M13.105,108.012l-.805-.5V95.117a2.38,2.38,0,0,1,1.146-2.047,2.756,2.756,0,0,1,2.661-.109l10.07,4.926-.355.723-10.084-4.94a1.991,1.991,0,0,0-1.9.068,1.558,1.558,0,0,0-.764,1.365v12.909Z" transform="translate(-12.3 -92.671)"/>
    </g>
    <path id="Path_5" data-name="Path 5" class="cls-2" d="M115.747,135.019l-.027.027L112.8,133.6" transform="translate(-97.408 -115.413)"/>
    <g id="Group_2" data-name="Group 2" transform="translate(47.869 7.844)">
      <path id="Path_6" data-name="Path 6" class="cls-4" d="M760.324,62.1a8.706,8.706,0,1,0,5.2,15.651,2.977,2.977,0,0,0,2.893,1.774.552.552,0,0,0,.532-.587V70.806A8.686,8.686,0,0,0,760.324,62.1Zm0,13.823a5.1,5.1,0,1,1,5.063-5.1A5.087,5.087,0,0,1,760.324,75.923Z" transform="translate(-696.995 -61.513)"/>
      <path id="Path_7" data-name="Path 7" class="cls-4" d="M656.813,62.557h2.47l.055-.014a2.984,2.984,0,0,0,2.047-3.1.562.562,0,0,0-.587-.546h-4.053a10.2,10.2,0,0,0-5.895,2.02,8.9,8.9,0,0,0-3.179,6.072,14.532,14.532,0,0,0,0,1.542,8.9,8.9,0,0,0,3.179,6.1,8.609,8.609,0,0,0,5.39,2.02H660.8a.562.562,0,0,0,.587-.546,2.969,2.969,0,0,0-2.047-3.1L656.922,73h-.109c-2.961-.055-5.567-2.5-5.567-5.226S653.838,62.612,656.813,62.557Z" transform="translate(-607.143 -58.75)"/>
      <path id="Path_8" data-name="Path 8" class="cls-4" d="M1149.051,64.652a8.546,8.546,0,0,0-6.113-2.552h0a8.546,8.546,0,0,0-6.113,2.552,8.742,8.742,0,0,0,6.113,14.887,8.546,8.546,0,0,0,6.113-2.552,8.8,8.8,0,0,0,0-12.336Zm-2.415,9.893a5.147,5.147,0,0,1-3.7,1.542,5.278,5.278,0,0,1-3.7-8.992,5.205,5.205,0,0,1,7.4,0,5.3,5.3,0,0,1,0,7.45Z" transform="translate(-1027.387 -61.513)"/>
      <path id="Path_9" data-name="Path 9" class="cls-4" d="M1008.675,65.974h-.014a8.725,8.725,0,0,0-2.511-5.622,8.6,8.6,0,0,0-12.226,0,8.742,8.742,0,0,0,6.113,14.887,8.472,8.472,0,0,0,4.994-1.6c-.327,2.634-3.316,4.667-5.895,4.721H997.6l-.055.014a2.984,2.984,0,0,0-2.047,3.1.562.562,0,0,0,.587.546h3.139c4.762-.1,9.074-3.821,9.429-8.092a1.691,1.691,0,0,0,.041-.368V66.52Zm-4.94,4.285a5.147,5.147,0,0,1-3.7,1.542,5.278,5.278,0,0,1-3.7-8.992,5.205,5.205,0,0,1,7.4,0,5.277,5.277,0,0,1,1.528,3.725A5.22,5.22,0,0,1,1003.736,70.258Z" transform="translate(-903.986 -57.8)"/>
      <path id="Path_10" data-name="Path 10" class="cls-4" d="M913.213,57.9h-3.179a8.916,8.916,0,0,0-8.692,8.215,1.694,1.694,0,0,0-.041.368v8.829a.566.566,0,0,0,.546.6c2.565,0,3.125-1.556,3.125-2.142V66.906a5.282,5.282,0,0,1,5.131-5.281h1.569l.055-.014a3.017,3.017,0,0,0,2.074-3.138A.558.558,0,0,0,913.213,57.9Z" transform="translate(-826.181 -57.886)"/>
      <path id="Path_11" data-name="Path 11" class="cls-5" d="M370.177,63.1a4.025,4.025,0,0,0-1.242.191,2.8,2.8,0,0,0-1.774,1.774v.027l-.014.055V74a2.8,2.8,0,0,1-.6,1.692,2.039,2.039,0,0,1-1.678.751,2.084,2.084,0,0,1-1.692-.751,2.732,2.732,0,0,1-.628-1.829v-4.6a1.792,1.792,0,0,0-.519-1.3,1.788,1.788,0,0,0-3.043,1.3v4.6a2.82,2.82,0,0,1-.614,1.829,2.267,2.267,0,0,1-3.37,0A2.712,2.712,0,0,1,354.375,74V65.16l-.014-.055v-.027a2.765,2.765,0,0,0-1.774-1.774,3.8,3.8,0,0,0-1.255-.191.539.539,0,0,0-.532.573v10.18a6.7,6.7,0,0,0,.437,2.4,6.237,6.237,0,0,0,1.214,1.979,5.476,5.476,0,0,0,1.856,1.337c.014.014.041.014.055.027a5.764,5.764,0,0,0,2.279.464,5.84,5.84,0,0,0,2.306-.437,5.058,5.058,0,0,0,1.774-1.269,6.468,6.468,0,0,0,1.829,1.242,5.421,5.421,0,0,0,2.292.464,5.614,5.614,0,0,0,2.279-.45c.027-.014.055-.014.082-.027a5.815,5.815,0,0,0,1.842-1.337,6.239,6.239,0,0,0,1.214-1.979,6.643,6.643,0,0,0,.437-2.4V63.687A.527.527,0,0,0,370.177,63.1Z" transform="translate(-350.8 -62.377)"/>
      <path id="Path_12" data-name="Path 12" class="cls-5" d="M525.865,73.735a3.079,3.079,0,0,0-2.047-1.392,2.236,2.236,0,0,0-1.433.2,9.417,9.417,0,0,1-2.1,1.146c-.027.014-.123.027-.123.041a5.654,5.654,0,0,1-2.62.177,5.729,5.729,0,0,1-3.985-2.756,4.963,4.963,0,0,1-.246-.464l.7-.164,6.755-1.542,3.248-.737.955-.218h0a2.881,2.881,0,0,0,1.869-2.961,2.074,2.074,0,0,0-.068-.3,8.932,8.932,0,0,0-7.3-5.431A9,9,0,0,0,509.927,71.1a9.208,9.208,0,0,0,2.866,4.162,8.964,8.964,0,0,0,7.969,1.719,15.389,15.389,0,0,0,3.179-1.528,15.222,15.222,0,0,0,1.828-1.31l.014-.014h0A.288.288,0,0,0,525.865,73.735Zm-13-6.386c.014-.109.041-.2.055-.3a5.713,5.713,0,0,1,10.125-2.2c.055.068.1.136.15.2l-10.343,2.361A.148.148,0,0,0,512.861,67.349Z" transform="translate(-487.821 -59.08)"/>
    </g>
    <path id="Path_13" data-name="Path 13" class="cls-6" d="M133.6,101.752,150.175,91.5a2.157,2.157,0,0,0,1.023-1.842V71.5l-17.6,9.92-.1-.041" transform="translate(-115.283 -61.787)"/>
    <path id="Path_14" data-name="Path 14" class="cls-7" d="M136.447,132.4l-2.852,1.61-.1-.055" transform="translate(-115.283 -114.376)"/>
    <path id="Path_15" data-name="Path 15" class="cls-6" d="M60.045,7.535,59.731,24.3a2.1,2.1,0,0,1-1,1.788L47.9,32.711a2.155,2.155,0,0,1-3.234-1.8V15.053L27.2,5.911,42.319.275a2.726,2.726,0,0,1,2.17,0L59.731,7.412Z" transform="translate(-23.488 -0.086)"/>
    <g id="Group_3" data-name="Group 3" transform="translate(18.053 13.084)">
      <path id="Path_16" data-name="Path 16" class="cls-3" d="M137.554,116.682a2.641,2.641,0,0,1-1.392-.382,2.381,2.381,0,0,1-1.16-2.088V98.329l-2.7-1.419.368-.71,2.92,1.528a.393.393,0,0,1,.218.355v16.129a1.575,1.575,0,0,0,.778,1.405,1.972,1.972,0,0,0,1.869.055l11.694-7.178v.955s-11.312,6.932-11.326,6.932A2.893,2.893,0,0,1,137.554,116.682Z" transform="translate(-132.3 -96.2)"/>
    </g>
    <path id="Path_17" data-name="Path 17" class="cls-5" d="M59.959,7.448l-.314-.123L44.389.175a2.726,2.726,0,0,0-2.17,0L27.1,5.824l17.466,9.143v.041" transform="translate(-23.402 0)"/>
    <path id="Path_18" data-name="Path 18" class="cls-8" d="M133.7,98.8l2.92,1.528v.041" transform="translate(-115.456 -85.361)"/>
    <path id="Path_19" data-name="Path 19" class="cls-5" d="M0,11.219v-.055L14.423,5.078a2.106,2.106,0,0,1,2.156-.014l11.476,5.513c1.365.805,1.378,1.16.041,1.992l-12.7,6.55v.041" transform="translate(0 -4.166)"/>
    <g id="Group_4" data-name="Group 4" transform="translate(14.996 0.598)">
      <path id="Path_20" data-name="Path 20" class="cls-3" d="M110.487,19.4l-.164-.314H109.9v-.041a.393.393,0,0,1,.218-.355l13.182-6.7c.478-.246.641-.478.641-.628s-.177-.4-.682-.655l-11.64-5.636L112.6,4.7l11.012,5.281c.928.464,1.133,1,1.133,1.365s-.191.887-1.078,1.337Z" transform="translate(-109.9 -4.7)"/>
    </g>
  </g>
</svg>
