<svg xmlns="http://www.w3.org/2000/svg" viewBox="130.628 3896.201 105.453 64.765">
  <defs>
    <style>
      .cls-1 {
        fill: #9ba223;
      }

      .cls-2 {
        fill: #fff;
      }

      .cls-3 {
        fill: #c9d139;
      }

      .cls-4 {
        fill: #6d740d;
      }

      .cls-5 {
        fill: #333;
      }
    </style>
  </defs>
  <g id="Group_303" data-name="Group 303" transform="translate(130.628 3896.201)">
    <path id="Path_286" data-name="Path 286" class="cls-1" d="M320.4,52.1V67.7a1.8,1.8,0,0,0,.869,1.553L333.6,76.908V58.925l.127-.081" transform="translate(-283.275 -46.057)"/>
    <path id="Path_287" data-name="Path 287" class="cls-1" d="M352.468,103l-.023.012-10.776-5.342a1.864,1.864,0,0,0-2.769,1.541v12.34a1.808,1.808,0,0,0,.857,1.541l12.688,7.346.243-.174" transform="translate(-299.632 -86.155)"/>
    <path id="Path_288" data-name="Path 288" class="cls-2" d="M408.223,385.7a7.393,7.393,0,1,0,4.415,13.29,2.528,2.528,0,0,0,2.456,1.506.469.469,0,0,0,.452-.5v-6.906A7.376,7.376,0,0,0,408.223,385.7Zm0,11.738a4.334,4.334,0,1,1,4.3-4.333A4.32,4.32,0,0,1,408.223,397.438Z" transform="translate(-354.448 -341.003)"/>
    <path id="Path_289" data-name="Path 289" class="cls-2" d="M304.531,385.505h2.1l.046-.012a2.533,2.533,0,0,0,1.738-2.63.477.477,0,0,0-.5-.463h-3.441a8.664,8.664,0,0,0-5.006,1.715,7.556,7.556,0,0,0-2.7,5.156,12.326,12.326,0,0,0,0,1.309,7.559,7.559,0,0,0,2.7,5.179,7.31,7.31,0,0,0,4.577,1.715h3.882a.477.477,0,0,0,.5-.464,2.521,2.521,0,0,0-1.738-2.63l-2.051-.012h-.093a4.441,4.441,0,1,1-.012-8.864Z" transform="translate(-262.366 -338.086)"/>
    <path id="Path_290" data-name="Path 290" class="cls-2" d="M796.025,387.867a7.256,7.256,0,0,0-5.191-2.167h0a7.257,7.257,0,0,0-5.191,2.167,7.424,7.424,0,0,0,5.191,12.641,7.256,7.256,0,0,0,5.191-2.167,7.47,7.47,0,0,0,0-10.475Zm-2.051,8.4a4.371,4.371,0,0,1-3.14,1.309,4.482,4.482,0,0,1-3.14-7.636,4.42,4.42,0,0,1,6.28,0,4.5,4.5,0,0,1,0,6.326Z" transform="translate(-692.716 -341.003)"/>
    <path id="Path_291" data-name="Path 291" class="cls-2" d="M655.269,388.341h-.012a7.408,7.408,0,0,0-2.132-4.774,7.3,7.3,0,0,0-10.382,0,7.423,7.423,0,0,0,5.191,12.641,7.194,7.194,0,0,0,4.241-1.356c-.278,2.236-2.816,3.963-5.006,4.009h-1.309l-.046.012a2.533,2.533,0,0,0-1.738,2.63.477.477,0,0,0,.5.463h2.665c4.044-.081,7.705-3.244,8.007-6.871a1.437,1.437,0,0,0,.035-.313V388.8Zm-4.194,3.638a4.371,4.371,0,0,1-3.14,1.309,4.482,4.482,0,0,1-3.14-7.636,4.42,4.42,0,0,1,6.28,0,4.5,4.5,0,0,1,0,6.326Z" transform="translate(-566.374 -337.202)"/>
    <path id="Path_292" data-name="Path 292" class="cls-2" d="M560.615,381.5h-2.7a7.571,7.571,0,0,0-7.381,6.975,1.437,1.437,0,0,0-.035.313v7.5a.481.481,0,0,0,.464.51c2.178,0,2.653-1.321,2.653-1.819v-5.828a4.485,4.485,0,0,1,4.357-4.484h1.332l.046-.012a2.562,2.562,0,0,0,1.761-2.665A.481.481,0,0,0,560.615,381.5Z" transform="translate(-486.714 -337.29)"/>
    <path id="Path_293" data-name="Path 293" class="cls-3" d="M16.453,386.7a3.417,3.417,0,0,0-1.054.162,2.38,2.38,0,0,0-1.506,1.506v.023l-.012.046v7.52a2.379,2.379,0,0,1-.51,1.437,1.732,1.732,0,0,1-1.425.637,1.77,1.77,0,0,1-1.437-.637,2.319,2.319,0,0,1-.533-1.553v-3.9a1.521,1.521,0,0,0-.44-1.1,1.518,1.518,0,0,0-2.584,1.1v3.9a2.394,2.394,0,0,1-.521,1.553,1.762,1.762,0,0,1-1.448.637,1.755,1.755,0,0,1-1.414-.637,2.3,2.3,0,0,1-.533-1.437V388.45l-.012-.046v-.023a2.348,2.348,0,0,0-1.506-1.506,3.223,3.223,0,0,0-1.066-.162A.458.458,0,0,0,0,387.2v8.655a5.687,5.687,0,0,0,.371,2.039,5.3,5.3,0,0,0,1.031,1.68,4.65,4.65,0,0,0,1.576,1.136c.012.012.035.012.046.023a4.894,4.894,0,0,0,1.935.394,4.958,4.958,0,0,0,1.958-.371,4.294,4.294,0,0,0,1.506-1.078,5.492,5.492,0,0,0,1.553,1.054,4.6,4.6,0,0,0,1.947.394,4.767,4.767,0,0,0,1.935-.382c.023-.012.046-.012.07-.023a4.937,4.937,0,0,0,1.564-1.135,5.3,5.3,0,0,0,1.031-1.68,5.641,5.641,0,0,0,.371-2.039V387.21A.452.452,0,0,0,16.453,386.7Z" transform="translate(0 -341.888)"/>
    <path id="Path_294" data-name="Path 294" class="cls-3" d="M172.592,395.155a2.615,2.615,0,0,0-1.738-1.182,1.9,1.9,0,0,0-1.217.174,8,8,0,0,1-1.784.973c-.023.012-.1.023-.1.035a4.8,4.8,0,0,1-2.225.151,4.865,4.865,0,0,1-3.383-2.341,4.228,4.228,0,0,1-.209-.394l.591-.139,5.736-1.309,2.758-.626.811-.185h0a2.446,2.446,0,0,0,1.587-2.514,1.757,1.757,0,0,0-.058-.255,7.585,7.585,0,0,0-6.2-4.612,7.638,7.638,0,0,0-8.1,9.988,7.819,7.819,0,0,0,2.433,3.534,7.612,7.612,0,0,0,6.767,1.46,13.067,13.067,0,0,0,2.7-1.3,12.921,12.921,0,0,0,1.553-1.112l.012-.012h0A.244.244,0,0,0,172.592,395.155Zm-11.042-5.423c.012-.093.035-.174.046-.255a4.851,4.851,0,0,1,8.6-1.866c.046.058.081.116.127.174l-8.783,2A.126.126,0,0,0,161.55,389.732Z" transform="translate(-140.288 -338.512)"/>
    <path id="Path_295" data-name="Path 295" class="cls-4" d="M455.269,98.032l14.206-8.771a1.862,1.862,0,0,0,.881-1.576V72.1l-15.075,8.493-.081-.035" transform="translate(-402.456 -63.74)"/>
    <path id="Path_296" data-name="Path 296" class="cls-4" d="M375.945,6.463l-.278,14.379a1.823,1.823,0,0,1-.857,1.541l-9.281,5.666a1.855,1.855,0,0,1-2.781-1.541v-13.6L347.8,5.073,360.754.241a2.343,2.343,0,0,1,1.854,0l13.058,6.118Z" transform="translate(-307.501 -0.038)"/>
    <path id="Path_297" data-name="Path 297" class="cls-3" d="M375.945,6.375l-.278-.1L362.608.141a2.343,2.343,0,0,0-1.854,0L347.8,4.985l14.959,7.833v.035" transform="translate(-307.501 0.05)"/>
    <g id="Group_295" data-name="Group 295" transform="translate(52.593 11.257)">
      <path id="Path_298" data-name="Path 298" class="cls-3" d="M455.3,99.7l2.5,1.309v.035" transform="translate(-455.138 -99.399)"/>
      <path id="Path_299" data-name="Path 299" class="cls-5" d="M456.4,99.012,453.9,97.7l.313-.6,2.5,1.309a.334.334,0,0,1,.185.3v.035h-.359Z" transform="translate(-453.9 -97.1)"/>
    </g>
    <path id="Path_300" data-name="Path 300" class="cls-3" d="M320.4,10.26v-.046L332.763,5a1.783,1.783,0,0,1,1.842-.012L344.443,9.7c1.159.684,1.182.985.035,1.7L333.6,17.015v.035" transform="translate(-283.275 -4.183)"/>
    <g id="Group_302" data-name="Group 302" transform="translate(38.573 0.562)">
      <g id="Group_296" data-name="Group 296" transform="translate(11.402 11.935)">
        <path id="Path_301" data-name="Path 301" d="M434.2,113.139v-2.758l.128-.081" transform="translate(-433.864 -110.01)"/>
        <path id="Path_302" data-name="Path 302" d="M431.984,110.928H431.3v-2.758a.33.33,0,0,1,.162-.29l.128-.081.232.371H432v2.758Z" transform="translate(-431.3 -107.8)"/>
      </g>
      <g id="Group_297" data-name="Group 297" transform="translate(0 10.281)">
        <path id="Path_303" data-name="Path 303" d="M333.584,106.666l-.684-.429V95.624a2.012,2.012,0,0,1,.985-1.75,2.354,2.354,0,0,1,2.283-.093l8.632,4.229-.3.614L335.855,94.4a1.712,1.712,0,0,0-1.622.058,1.329,1.329,0,0,0-.649,1.17Z" transform="translate(-332.9 -93.53)"/>
      </g>
      <g id="Group_298" data-name="Group 298" transform="translate(11.587 14.75)">
        <path id="Path_304" data-name="Path 304" d="M436.726,136.017l-.023.023-2.5-1.24" transform="translate(-434.049 -134.487)"/>
        <path id="Path_305" data-name="Path 305" d="M435.553,133.989a.357.357,0,0,1-.151-.035l-2.5-1.24.3-.614,2.5,1.24-.139.266.185.313-.023.012A.262.262,0,0,1,435.553,133.989Z" transform="translate(-432.9 -132.1)"/>
      </g>
      <g id="Group_299" data-name="Group 299" transform="translate(14.009 14.623)">
        <path id="Path_306" data-name="Path 306" d="M457.626,133.6l-2.445,1.379-.081-.046" transform="translate(-454.949 -133.299)"/>
        <path id="Path_307" data-name="Path 307" d="M454.032,133.016a.357.357,0,0,1-.151-.035l-.081-.035.174-.359-.116-.209L456.3,131l.336.6-2.445,1.367A.266.266,0,0,1,454.032,133.016Z" transform="translate(-453.8 -131)"/>
      </g>
      <g id="Group_300" data-name="Group 300" transform="translate(14.02 10.695)">
        <path id="Path_308" data-name="Path 308" d="M458.407,114.643a2.4,2.4,0,0,1-1.193-.324,2.051,2.051,0,0,1-1-1.784V98.919L453.9,97.7l.313-.6,2.5,1.309a.334.334,0,0,1,.185.3v13.812a1.356,1.356,0,0,0,.66,1.205,1.667,1.667,0,0,0,1.6.046l10.023-6.153v.811s-9.7,5.933-9.7,5.944A2.317,2.317,0,0,1,458.407,114.643Z" transform="translate(-453.9 -97.1)"/>
      </g>
      <g id="Group_301" data-name="Group 301" transform="translate(11.402)">
        <path id="Path_309" data-name="Path 309" d="M431.8,17.383l-.139-.267H431.3v-.035a.334.334,0,0,1,.185-.3l11.3-5.747c.406-.209.545-.406.545-.533s-.151-.336-.579-.556l-9.976-4.832.834-.313,9.432,4.53c.8.406.973.857.973,1.17s-.162.753-.927,1.147Z" transform="translate(-431.3 -4.8)"/>
      </g>
    </g>
  </g>
</svg>
