<svg xmlns="http://www.w3.org/2000/svg" xmlns:xlink="http://www.w3.org/1999/xlink" viewBox="478 859 77.816 84.999">
  <defs>
    <style>
      .cls-1 {
        fill: #e8e8e8;
      }

      .cls-2 {
        fill: #fff;
      }

      .cls-3 {
        clip-path: url(#clip-path);
      }

      .cls-4 {
        fill: #333;
      }

      .cls-5 {
        clip-path: url(#clip-path-2);
      }

      .cls-6 {
        fill: #c8d41b;
      }
    </style>
    <clipPath id="clip-path">
      <rect id="Rectangle_11" data-name="Rectangle 11" width="44.295" height="30.528"/>
    </clipPath>
    <clipPath id="clip-path-2">
      <rect id="Rectangle_12" data-name="Rectangle 12" width="17.958" height="21.07"/>
    </clipPath>
  </defs>
  <g id="Group_27" data-name="Group 27" transform="translate(478 859)">
    <circle id="Ellipse_5" data-name="Ellipse 5" class="cls-1" cx="38.908" cy="38.908" r="38.908" transform="translate(0 7.183)"/>
    <g id="Group_21" data-name="Group 21" transform="translate(13.169 0.898)">
      <path id="Path_23" data-name="Path 23" class="cls-2" d="M73.957,32.387a4.347,4.347,0,0,0-3.113-1.317h-1.5V22.211A19.9,19.9,0,0,0,63.243,7.606,19.9,19.9,0,0,0,48.637,1.5,19.67,19.67,0,0,0,34.091,7.606a19.994,19.994,0,0,0-6.106,14.606V31.07h-1.5a4.249,4.249,0,0,0-3.173,1.317A4.383,4.383,0,0,0,22,35.56V62.2a4.031,4.031,0,0,0,1.317,3.113,4.383,4.383,0,0,0,3.173,1.317H70.845a4.249,4.249,0,0,0,3.173-1.317A4.347,4.347,0,0,0,75.334,62.2V35.56a4.544,4.544,0,0,0-1.377-3.173ZM60.489,31.07H36.845V22.211a11.343,11.343,0,0,1,3.472-8.38,11.85,11.85,0,0,1,16.76,0,11.343,11.343,0,0,1,3.472,8.38V31.07Zm0,0" transform="translate(-22 -1.5)"/>
    </g>
    <g id="Group_23" data-name="Group 23" transform="translate(17.359)">
      <g id="Group_22" data-name="Group 22" class="cls-3">
        <path id="Path_24" data-name="Path 24" class="cls-4" d="M69.348,32.07V23.211A19.9,19.9,0,0,0,63.243,8.606,19.9,19.9,0,0,0,48.637,2.5,19.67,19.67,0,0,0,34.091,8.606a19.994,19.994,0,0,0-6.106,14.606V32.07h-1.5a4.249,4.249,0,0,0-3.173,1.317A4.383,4.383,0,0,0,22,36.56V63.2a4.031,4.031,0,0,0,1.317,3.113,4.383,4.383,0,0,0,3.173,1.317H70.845a4.249,4.249,0,0,0,3.173-1.317A4.347,4.347,0,0,0,75.334,63.2V36.56a4.249,4.249,0,0,0-1.317-3.173h0A4.347,4.347,0,0,0,70.9,32.07H69.348m-8.859,0H36.845V23.211a11.343,11.343,0,0,1,3.472-8.38,11.85,11.85,0,0,1,16.76,0,11.343,11.343,0,0,1,3.472,8.38V32.07Zm0,0" transform="translate(-26.19 -1.004)"/>
      </g>
    </g>
    <g id="Group_26" data-name="Group 26" transform="translate(30.528 37.053)">
      <g id="Group_25" data-name="Group 25">
        <g id="Group_24" data-name="Group 24" class="cls-5">
          <path id="Path_25" data-name="Path 25" class="cls-6" d="M68.758,80.556c-.239-.6-.479-1.137-.718-1.736a.848.848,0,0,0-1.077-.539c-.718.18-1.377.359-2.1.539a7.833,7.833,0,0,1-4.07-.12,4.771,4.771,0,0,1-3.113-3.292h4.549a.664.664,0,0,0,.658-.658V73.313a.664.664,0,0,0-.658-.658H57.265V71.517h4.968a.664.664,0,0,0,.658-.658V69.422a.664.664,0,0,0-.658-.658h-4.37V68.7a4.542,4.542,0,0,1,2.514-2.634,7.459,7.459,0,0,1,4.43-.239c.718.12,1.377.359,2.1.539a.764.764,0,0,0,1.018-.539c.239-.539.479-1.137.718-1.676a.812.812,0,0,0-.419-1.2,2.919,2.919,0,0,0-.419-.18A12.121,12.121,0,0,0,61.275,62a8.875,8.875,0,0,0-4.31,1.8,9.409,9.409,0,0,0-3.232,4.789l-.06.239H51.458a.664.664,0,0,0-.658.658v1.437a.664.664,0,0,0,.658.658h1.856v1.137H51.578a.664.664,0,0,0-.658.658V74.81a.664.664,0,0,0,.658.658h2.1c.18.539.3,1.077.479,1.556a8.936,8.936,0,0,0,5.567,5.327,11.332,11.332,0,0,0,6.764.06,14.779,14.779,0,0,0,1.736-.6.921.921,0,0,0,.539-1.257Zm0,0" transform="translate(-50.92 -61.88)"/>
        </g>
      </g>
    </g>
  </g>
</svg>
