<svg xmlns="http://www.w3.org/2000/svg" viewBox="478 1136 80 79.389">
  <defs>
    <style>
      .cls-1 {
        fill: #e8e8e8;
      }

      .cls-2 {
        fill: #fff;
      }

      .cls-3 {
        fill: #333;
      }

      .cls-4 {
        fill: #c8d41b;
        font-size: 11px;
        font-family: Helvetica;
      }
    </style>
  </defs>
  <g id="Group_30" data-name="Group 30" transform="translate(478 1136)">
    <circle id="Ellipse_9" data-name="Ellipse 9" class="cls-1" cx="39.695" cy="39.695" r="39.695"/>
    <path id="Path_36" data-name="Path 36" class="cls-2" d="M42.321,43.611V53.992H24L31.328,43Z" transform="translate(-9.344 -16.74)"/>
    <circle id="Ellipse_10" data-name="Ellipse 10" class="cls-2" cx="4.275" cy="4.275" r="4.275" transform="translate(18.931 46.412)"/>
    <g id="Group_33" data-name="Group 33" transform="translate(9.16 25.038)">
      <path id="Path_37" data-name="Path 37" class="cls-3" d="M88.469,74.3a5.069,5.069,0,1,0,5.069,5.069A5.056,5.056,0,0,0,88.469,74.3Zm0,8.183a3.053,3.053,0,1,1,3.053-3.053A3.1,3.1,0,0,1,88.469,82.483Z" transform="translate(-41.629 -53.964)"/>
      <path id="Path_38" data-name="Path 38" class="cls-3" d="M35.069,74.3a5.069,5.069,0,1,0,5.069,5.069A5.056,5.056,0,0,0,35.069,74.3Zm0,8.183a3.053,3.053,0,1,1,3.053-3.053A3.062,3.062,0,0,1,35.069,82.483Z" transform="translate(-20.84 -53.964)"/>
      <path id="Path_39" data-name="Path 39" class="cls-3" d="M75.763,60.664l-.733-.733V42.038A1.029,1.029,0,0,0,73.992,41h-45.8a1.166,1.166,0,0,0-.855.427L20.374,51.5a11.792,11.792,0,0,0-3.115,3.725l-.794,2.015a15.727,15.727,0,0,0-.427,2.626l-.733.733a1.011,1.011,0,0,0-.305.733v2.015a1.127,1.127,0,0,0,.305.733l.733.733V66.4a1.029,1.029,0,0,0,1.038,1.038h4.031A1.029,1.029,0,0,0,22.145,66.4a7.115,7.115,0,1,1,14.229.061A1.029,1.029,0,0,0,37.412,67.5H53.718a1.029,1.029,0,0,0,1.038-1.038,7.026,7.026,0,0,1,7.084-7.145,7.154,7.154,0,0,1,7.145,7.145A1.029,1.029,0,0,0,70.023,67.5h4.092a1.029,1.029,0,0,0,1.038-1.038V64.817l.733-.733a1.011,1.011,0,0,0,.305-.733V61.336A2.521,2.521,0,0,0,75.763,60.664ZM37.412,50.16A1.029,1.029,0,0,1,36.374,51.2H25.2a1.008,1.008,0,0,1-.916-.55.925.925,0,0,1,.061-1.038L28.435,43.5a.924.924,0,0,1,.855-.427h7.084a1.029,1.029,0,0,1,1.038,1.038Z" transform="translate(-15 -41)"/>
    </g>
    <circle id="Ellipse_11" data-name="Ellipse 11" class="cls-2" cx="17.099" cy="17.099" r="17.099" transform="translate(45.802 40.305)"/>
    <text id="_1000" data-name="+1000" class="cls-4" transform="translate(47.634 61.254)"><tspan x="0" y="0">+1000</tspan></text>
  </g>
</svg>
